<svg width="18" height="22" viewBox="0 0 18 22" fill="none" xmlns="http://www.w3.org/2000/svg">
<path d="M5.7874 21.2797C2.62001 21.2615 0 14.7958 0 11.5029C0 6.12409 4.03505 4.94652 5.59013 4.94652C6.29094 4.94652 7.03925 5.22173 7.69929 5.46527C8.16084 5.63515 8.63819 5.81052 8.90367 5.81052C9.06258 5.81052 9.43705 5.66133 9.76767 5.53044C10.4728 5.24975 11.3501 4.90088 12.3718 4.90088C12.3737 4.90088 12.3761 4.90088 12.3779 4.90088C13.1408 4.90088 15.454 5.06831 16.8447 7.15676L17.1704 7.64629L16.7016 8.00006C16.0318 8.50543 14.8098 9.42728 14.8098 11.2533C14.8098 13.4161 16.1938 14.2478 16.8587 14.6478C17.1522 14.8244 17.456 15.0065 17.456 15.4047C17.456 15.6647 15.3809 21.2475 12.3676 21.2475C11.6302 21.2475 11.109 21.0259 10.6493 20.8304C10.1841 20.6325 9.78284 20.4621 9.11977 20.4621C8.78367 20.4621 8.35865 20.621 7.9087 20.7896C7.29381 21.0191 6.59782 21.2797 5.8081 21.2797H5.7874Z" fill="white"/>
<path d="M12.6912 0C12.7697 2.82967 10.746 4.79276 8.72474 4.66964C8.39166 2.41147 10.7458 0 12.6912 0Z" fill="white"/>
</svg>
