<svg width="27" height="27" viewBox="0 0 27 27" fill="none" xmlns="http://www.w3.org/2000/svg">
<path d="M24.033 3.67206L14.8884 23.6239C14.8118 23.791 14.6821 23.9281 14.5194 24.0136C14.3567 24.0992 14.1703 24.1284 13.9892 24.0967C13.8081 24.065 13.6427 23.9742 13.5187 23.8385C13.3947 23.7028 13.3192 23.5298 13.304 23.3466L12.5309 14.0718L3.25603 13.2987C3.07285 13.2834 2.89988 13.2079 2.76417 13.084C2.62846 12.96 2.53766 12.7945 2.50597 12.6135C2.47429 12.4324 2.50351 12.246 2.58906 12.0833C2.6746 11.9206 2.81166 11.7908 2.97879 11.7143L22.9306 2.56972C23.0849 2.49904 23.257 2.47724 23.424 2.50725C23.591 2.53727 23.7448 2.61766 23.8648 2.73763C23.9848 2.8576 24.0652 3.01141 24.0952 3.1784C24.1252 3.3454 24.1034 3.51757 24.0327 3.67181L24.033 3.67206Z" fill="#080809"/>
</svg>
