<svg width="287" height="206" viewBox="0 0 287 206" fill="none" xmlns="http://www.w3.org/2000/svg">
<g clip-path="url(#clip0_1_2022)">
<path d="M0 -8C94.71 -8 189.42 -8 287 -8C287 62.62 287 133.24 287 206C192.29 206 97.58 206 0 206C0 135.38 0 64.76 0 -8Z" fill="white"/>
<path d="M83.146 65.8417C83.5381 65.841 83.9302 65.84 84.3223 65.8387C85.1395 65.8371 85.9565 65.8393 86.7737 65.8442C87.8148 65.8502 88.8553 65.8468 89.8964 65.8405C90.7046 65.8367 91.5127 65.8379 92.3209 65.8406C92.7045 65.8413 93.0881 65.8405 93.4716 65.8381C96.0967 65.8249 98.0518 66.0155 100.013 67.3861C102.361 69.1974 102.125 71.3684 102.072 73.7129C102.068 74.0375 102.064 74.3622 102.061 74.6868C102.051 75.4768 102.037 76.2667 102.02 77.0566C102.209 77.0523 102.398 77.0479 102.593 77.0434C103.464 77.0258 104.336 77.0151 105.208 77.0044C105.505 76.9974 105.802 76.9904 106.109 76.9832C109.039 76.9564 111.186 77.4856 113.319 78.9963C115.927 80.9814 115.877 82.9876 115.866 85.602C115.868 85.9609 115.87 86.3198 115.872 86.6787C115.877 87.6502 115.877 88.6217 115.875 89.5933C115.874 90.406 115.876 91.2187 115.878 92.0314C115.882 93.9499 115.881 95.8683 115.878 97.7868C115.875 99.7619 115.879 101.737 115.886 103.712C115.892 105.411 115.894 107.111 115.893 108.81C115.892 109.823 115.892 110.836 115.897 111.85C115.902 112.803 115.9 113.757 115.895 114.711C115.894 115.059 115.895 115.408 115.898 115.756C115.92 118.537 115.503 120.72 112.807 122.789C110.912 124.02 108.989 124.453 106.504 124.496C106.517 124.69 106.53 124.885 106.543 125.085C106.647 127.738 106.647 127.738 105.383 128.885C104.309 129.637 103.078 129.641 101.664 129.613C100.44 129.451 99.6701 128.993 98.9365 128.258C98.376 127.213 98.376 127.213 98.376 124.496C91.4392 124.496 84.5024 124.496 77.3555 124.496C77.3555 125.462 77.3555 126.427 77.3555 127.422C76.9069 128.252 76.5173 128.687 75.6563 129.29C74.3464 129.643 73.1217 129.693 71.75 129.512C70.6854 129.089 70.0098 128.579 69.4585 127.781C69.1789 127.093 69.1731 126.507 69.1925 125.789C69.1976 125.546 69.2026 125.304 69.2078 125.054C69.2143 124.87 69.2208 124.686 69.2275 124.496C69.0512 124.491 68.8749 124.485 68.6933 124.48C65.9662 124.345 64.1572 123.618 62.2207 122.197C61.3799 121.469 61.3799 121.469 61.3799 120.943C61.7978 120.665 62.2339 120.403 62.6761 120.147C63.9958 119.361 65.2463 118.54 66.4773 117.678C67.6622 116.849 68.8514 116.03 70.0815 115.238C71.2122 114.504 72.3197 113.751 73.4316 113.002C74.5487 113.779 75.3712 114.586 76.1818 115.549C76.3528 115.746 76.3528 115.746 76.5272 115.947C77.3555 116.917 77.3555 116.917 77.3555 117.391C78.0954 116.977 78.8353 116.563 79.5976 116.137C79.5467 115.983 79.4958 115.829 79.4433 115.67C79.2131 114.973 78.985 114.275 78.7568 113.577C78.6766 113.334 78.5964 113.092 78.5138 112.843C78.4379 112.61 78.362 112.377 78.2839 112.137C78.2134 111.922 78.143 111.708 78.0704 111.487C77.916 110.912 77.916 110.912 77.916 110.076C78.4657 109.693 78.9925 109.373 79.5976 109.044C79.9589 108.841 80.3198 108.637 80.6804 108.433C80.8703 108.326 81.0602 108.22 81.2559 108.11C82.2329 107.554 83.1829 106.973 84.1346 106.393C84.3223 106.279 84.5101 106.165 84.7035 106.048C85.5628 105.527 86.418 105.004 87.2636 104.47C87.6744 104.213 87.6744 104.213 88.0934 103.95C88.3294 103.8 88.5653 103.65 88.8084 103.496C89.4072 103.18 89.4072 103.18 90.248 103.18C90.3983 103.386 90.5486 103.592 90.7035 103.804C92.5485 106.315 94.4953 108.778 96.4611 111.237C97.4844 112.517 98.4933 113.803 99.4971 115.092C100.693 114.833 100.693 114.833 101.704 114.321C102.399 113.256 101.987 112.11 101.561 111.02C101.461 110.761 101.361 110.501 101.258 110.234C101.147 109.955 101.036 109.675 100.926 109.396C100.813 109.106 100.701 108.816 100.588 108.526C100.294 107.765 99.9958 107.005 99.6972 106.244C99.2196 105.027 98.7463 103.809 98.2734 102.591C98.1085 102.168 97.9421 101.744 97.7755 101.321C97.6241 100.933 97.6241 100.933 97.4695 100.537C97.3805 100.31 97.2915 100.083 97.1998 99.8498C96.5842 98.0982 96.5842 98.0982 97.0907 97.44C97.2951 97.2694 97.4996 97.0989 97.7103 96.9232C97.943 96.7247 98.1757 96.5261 98.4154 96.3216C98.5442 96.2149 98.673 96.1081 98.8057 95.9982C99.239 95.6377 99.6643 95.2726 100.088 94.906C100.703 94.3746 101.319 93.8438 101.936 93.3142C102.09 93.1825 102.243 93.0509 102.401 92.9153C102.704 92.6555 103.007 92.396 103.311 92.1367C103.735 91.7741 104.156 91.41 104.577 91.0455C104.703 90.9386 104.829 90.8317 104.958 90.7215C105.946 89.8618 106.718 89.0406 106.872 87.8977C106.784 87.2951 106.694 86.952 106.224 86.4609C105.258 85.9279 104.306 85.9531 103.141 86.043C101.836 86.6214 100.707 87.3273 99.5671 88.0675C99.3095 88.2333 99.3095 88.2333 99.0467 88.4025C98.047 89.048 97.06 89.7031 96.0812 90.3663C95.098 91.0292 94.1014 91.6773 93.0858 92.3125C92.838 92.4677 92.5901 92.6228 92.3348 92.7827C91.5208 93.2171 90.9613 93.3991 89.958 93.3025C89.6469 93.244 89.6469 93.244 89.3295 93.1844C89.0816 93.1388 88.8336 93.0933 88.5782 93.0464C88.3026 92.9939 88.027 92.9414 87.7431 92.8872C87.4505 92.8334 87.158 92.7797 86.8566 92.7243C85.4955 92.4738 84.136 92.2188 82.7764 91.9637C81.0937 91.6481 79.4103 91.3345 77.7262 91.0229C76.871 90.8638 76.0168 90.7021 75.1626 90.5404C74.628 90.4412 74.0933 90.3421 73.5586 90.2431C73.3122 90.1957 73.0658 90.1483 72.8118 90.0995C71.1591 89.7856 71.1591 89.7856 69.5078 90.0137C68.8172 90.4745 68.8172 90.4745 68.3867 91.0586C68.3656 91.4822 68.3656 91.4822 68.667 91.8945C69.3501 92.2911 69.3501 92.2911 70.226 92.6431C70.3872 92.7124 70.5484 92.7817 70.7146 92.853C71.2448 93.0802 71.7776 93.3036 72.3105 93.5272C72.8631 93.7629 73.4149 93.9996 73.9667 94.2362C74.344 94.3979 74.7217 94.5593 75.0995 94.7203C77.0183 95.5388 78.9135 96.3854 80.8063 97.2367C81.1085 97.3723 81.4108 97.5079 81.7221 97.6476C82.4156 97.9588 83.1088 98.2702 83.8018 98.582C83.4151 99.1966 82.9679 99.7274 82.4267 100.273C82.2657 100.435 82.1047 100.598 81.9388 100.766C81.7674 100.937 81.596 101.109 81.4194 101.286C81.2439 101.463 81.0683 101.639 80.8874 101.821C79.6528 103.061 78.4002 104.29 77.1266 105.508C76.4349 106.183 75.7757 106.877 75.1133 107.568C72.3386 107.293 69.5639 107.017 66.7051 106.732C66.3351 107.146 65.9651 107.56 65.584 107.986C66.2145 108.357 66.8451 108.727 67.4758 109.097C67.6536 109.201 67.8313 109.305 68.0145 109.413C68.879 109.92 69.7447 110.424 70.6289 110.912C70.1834 111.734 69.462 112.235 68.6144 112.845C67.71 113.504 66.8233 114.164 66.0044 114.883C65.1977 115.589 64.3318 116.243 63.4469 116.894C62.4126 117.657 61.4361 118.418 60.5391 119.271C59.8485 118.499 59.9068 118.116 59.9036 117.193C59.9023 117.045 59.901 116.896 59.8997 116.743C59.8962 116.244 59.8966 115.745 59.8971 115.246C59.8954 114.889 59.8935 114.531 59.8914 114.174C59.8864 113.202 59.8851 112.23 59.8848 111.258C59.8842 110.446 59.8822 109.635 59.8802 108.823C59.8756 106.907 59.8742 104.991 59.8746 103.075C59.875 101.1 59.8691 99.1257 59.8602 97.151C59.8529 95.455 59.8499 93.7589 59.8502 92.0629C59.8504 91.0502 59.8488 90.0376 59.8428 89.025C59.8374 88.0716 59.8374 87.1183 59.8414 86.1649C59.842 85.8159 59.8407 85.4668 59.8373 85.1178C59.8066 81.7478 59.8066 81.7478 61.0996 80.1914C61.2056 80.0557 61.3116 79.92 61.4209 79.7802C62.5975 78.3311 64.5715 77.5164 66.7051 77.0566C67.5392 77.0092 67.5392 77.0092 68.402 77.0158C68.8681 77.0178 68.8681 77.0178 69.3436 77.0199C69.6637 77.0234 69.9838 77.0269 70.3136 77.0305C70.8035 77.0333 70.8035 77.0333 71.3033 77.0362C72.1062 77.0411 72.909 77.048 73.7119 77.0566C73.706 76.8576 73.7002 76.6585 73.6941 76.4534C73.6736 75.7068 73.6609 74.9602 73.6503 74.2135C73.6447 73.8918 73.6371 73.5702 73.6273 73.2485C73.5622 71.0488 73.7857 69.4736 75.4286 67.6001C77.7062 65.9756 80.1068 65.8222 83.146 65.8417Z" fill="#0073D9"/>
<path d="M136.703 102.487C136.923 102.488 137.143 102.489 137.37 102.491C140.914 102.543 144.027 103.318 146.686 105.102C148.329 106.453 149.386 108.042 149.386 109.867C147.536 109.867 145.686 109.867 143.78 109.867C143.503 109.382 143.503 109.382 143.22 108.888C142.354 107.601 141.352 107.1 139.602 106.571C137.496 106.075 135.308 106.293 133.323 106.968C131.24 107.834 130.14 108.973 129.401 110.657C128.787 112.778 128.903 115.046 130.327 116.973C131.642 118.439 133.323 119.341 135.652 119.689C138.017 119.834 139.961 119.612 142.029 118.736C142.986 117.963 143.471 117.091 144.061 116.137C145.91 116.137 147.76 116.137 149.666 116.137C149.11 118.622 147.957 120.547 145.164 122.101C141.594 123.696 137.555 124.068 133.508 123.522C129.968 122.797 127.105 121.306 125.143 118.984C123.037 116.077 122.575 112.414 123.758 109.227C125.182 106.325 127.476 104.587 131.133 103.234C133.003 102.671 134.706 102.476 136.703 102.487Z" fill="#0073D9"/>
<path d="M216.721 84.0707C218.84 85.3582 220.037 87.2187 220.575 89.1777C220.575 90.1432 220.575 91.1087 220.575 92.1035C215.488 92.1035 210.401 92.1035 205.16 92.1035C206.032 94.3496 206.032 94.3496 208.348 95.5126C210.17 95.8682 211.437 95.7089 213.075 95.0848C213.606 94.8343 213.606 94.8343 213.938 94.3909C214.409 93.9844 214.409 93.9844 215.019 93.8895C215.25 93.8939 215.48 93.8982 215.718 93.9027C215.968 93.9054 216.218 93.9081 216.476 93.9109C216.736 93.9179 216.996 93.9249 217.264 93.9321C217.66 93.9378 217.66 93.9378 218.063 93.9436C218.714 93.9534 219.364 93.9672 220.015 93.9844C219.697 95.6855 218.539 96.7601 216.742 97.8122C214.471 98.9866 211.541 99.4758 208.804 99.209C205.814 98.746 203.19 97.8866 201.394 95.9828C199.594 93.7533 199.068 91.2198 199.746 88.6651C200.288 87.2246 200.973 86.0857 202.357 84.998C202.522 84.8671 202.686 84.7362 202.856 84.6013C206.582 81.9078 212.541 82.0221 216.721 84.0707Z" fill="#0073D9"/>
<path d="M172.648 83.7441C174.26 84.5378 175.317 85.6669 175.887 87.0457C176.034 87.5864 176.045 88.0849 176.044 88.6367C176.043 88.9755 176.043 88.9755 176.043 89.3212C176.042 89.5637 176.041 89.8062 176.039 90.0561C176.039 90.3054 176.038 90.5547 176.038 90.8116C176.036 91.608 176.033 92.4043 176.029 93.2007C176.028 93.7406 176.027 94.2804 176.025 94.8203C176.022 96.1439 176.017 97.4674 176.012 98.791C174.347 98.791 172.682 98.791 170.967 98.791C170.967 98.3772 170.967 97.9634 170.967 97.5371C170.695 97.6966 170.423 97.8561 170.143 98.0204C167.914 99.1884 165.532 99.4649 162.839 99.209C160.911 98.7647 159.448 97.9707 158.354 96.7012C157.785 95.4275 157.843 93.9148 158.372 92.639C160.605 90.4371 163.966 89.7859 167.497 89.4025C168.581 89.2771 169.344 89.1426 170.126 88.5508C170.36 87.9329 170.36 87.9329 170.126 87.2969C169.245 86.688 168.656 86.4807 167.463 86.3695C166.369 86.4715 165.707 86.6167 164.801 87.0879C164.616 87.5017 164.431 87.9155 164.24 88.3418C162.483 88.3418 160.726 88.3418 158.915 88.3418C159.188 86.5083 159.462 85.5566 161.175 84.3319C164.335 82.4779 169.174 82.2385 172.648 83.7441Z" fill="#0073D9"/>
<path d="M178.267 108.666C179.807 109.567 180.66 110.747 181.057 112.166C181.081 112.536 181.09 112.907 181.088 113.278C181.088 113.61 181.088 113.61 181.088 113.949C181.087 114.187 181.086 114.425 181.084 114.671C181.084 114.915 181.083 115.16 181.083 115.412C181.081 116.193 181.078 116.975 181.074 117.756C181.073 118.286 181.071 118.816 181.07 119.346C181.067 120.645 181.062 121.943 181.057 123.242C179.299 123.242 177.542 123.242 175.731 123.242C175.727 122.937 175.723 122.633 175.719 122.319C175.703 121.187 175.681 120.056 175.658 118.924C175.649 118.435 175.641 117.945 175.634 117.456C175.625 116.752 175.61 116.048 175.595 115.344C175.593 115.125 175.591 114.907 175.589 114.682C175.569 113.211 175.569 113.211 174.61 111.957C173.508 111.478 172.503 111.457 171.247 111.539C170.067 111.85 169.353 112.222 168.677 113.014C168.19 113.863 168.275 114.782 168.274 115.691C168.269 115.907 168.264 116.123 168.26 116.346C168.246 117.034 168.24 117.722 168.234 118.409C168.226 118.877 168.218 119.344 168.209 119.812C168.188 120.955 168.174 122.099 168.164 123.242C166.407 123.242 164.649 123.242 162.839 123.242C162.839 118.277 162.839 113.311 162.839 108.195C164.596 108.195 166.353 108.195 168.164 108.195C168.257 108.609 168.349 109.023 168.444 109.449C168.676 109.29 168.907 109.13 169.145 108.966C171.773 107.351 175.389 107.352 178.267 108.666Z" fill="#0073D9"/>
<path d="M123.04 77.6836C129.792 77.6836 136.544 77.6836 143.5 77.6836C143.5 78.925 143.5 80.1663 143.5 81.4453C141.003 81.4453 138.506 81.4453 135.933 81.4453C135.933 87.2384 135.933 93.0314 135.933 99C134.175 99 132.418 99 130.607 99C130.607 93.207 130.607 87.4139 130.607 81.4453C128.11 81.4453 125.613 81.4453 123.04 81.4453C123.04 80.2039 123.04 78.9626 123.04 77.6836Z" fill="#0073D9"/>
<path d="M177.413 83.1172C179.355 83.1172 181.298 83.1172 183.299 83.1172C184.871 86.4965 186.443 89.8757 188.063 93.3574C188.556 92.8063 188.798 92.4165 189.069 91.7993C189.152 91.6118 189.236 91.4242 189.321 91.231C189.41 91.0291 189.498 90.8273 189.589 90.6194C189.68 90.412 189.772 90.2047 189.867 89.991C190.16 89.3284 190.452 88.6653 190.744 88.0022C191.036 87.3376 191.329 86.6731 191.623 86.0089C191.806 85.5953 191.988 85.1816 192.17 84.7676C192.252 84.5814 192.334 84.3951 192.419 84.2032C192.492 84.0385 192.564 83.8738 192.639 83.7041C192.828 83.3262 192.828 83.3262 193.108 83.1172C193.546 83.099 193.985 83.0948 194.423 83.0968C194.688 83.0974 194.953 83.0981 195.225 83.0988C195.504 83.1006 195.782 83.1023 196.069 83.1041C196.348 83.1051 196.628 83.106 196.916 83.107C197.608 83.1095 198.301 83.1129 198.994 83.1172C197.637 86.0687 196.134 88.9748 194.615 91.8815C194.375 92.3409 194.136 92.8004 193.897 93.2599C192.897 95.1766 191.894 97.0916 190.866 99C189.016 99 187.167 99 185.261 99C185.023 98.5442 184.785 98.0884 184.54 97.6187C184.458 97.4602 184.375 97.3017 184.29 97.1384C183.865 96.3239 183.44 95.5093 183.016 94.6946C182.176 93.0818 181.335 91.4696 180.483 89.8603C180.118 89.1717 179.755 88.4826 179.392 87.7936C179.218 87.4631 179.042 87.1329 178.866 86.8028C178.62 86.341 178.377 85.8786 178.133 85.416C178.06 85.2796 177.987 85.1432 177.911 85.0027C177.552 84.315 177.413 83.8703 177.413 83.1172Z" fill="#0073D9"/>
<path d="M81.8814 69.2701C82.1686 69.2688 82.4557 69.2675 82.7516 69.2661C83.2145 69.2674 83.2145 69.2674 83.6868 69.2687C84.1647 69.2681 84.1647 69.2681 84.6522 69.2675C85.3257 69.2672 85.9993 69.268 86.6728 69.2697C87.7031 69.272 88.7333 69.2698 89.7636 69.2671C90.4181 69.2674 91.0726 69.2679 91.7271 69.2687C92.0352 69.2679 92.3432 69.267 92.6606 69.2661C92.9487 69.2675 93.2367 69.2688 93.5335 69.2701C93.7859 69.2705 94.0384 69.2708 94.2984 69.2711C95.1141 69.3318 95.6873 69.4586 96.4141 69.7422C98.3832 71.6999 97.2549 74.6095 97.2549 77.0566C90.9655 77.0566 84.6762 77.0566 78.1963 77.0566C78.1963 70.9961 78.1963 70.9961 79.3174 69.7422C80.1597 69.2996 80.8649 69.2715 81.8814 69.2701Z" fill="white"/>
<path d="M224.499 77.2656C226.256 77.2656 228.014 77.2656 229.824 77.2656C229.824 84.369 229.824 91.4724 229.824 98.791C228.067 98.791 226.31 98.791 224.499 98.791C224.499 91.6876 224.499 84.5843 224.499 77.2656Z" fill="#0073D9"/>
<path d="M156.393 82.9082C156.393 84.2875 156.393 85.6668 156.393 87.0879C155.653 87.0879 154.913 87.0879 154.15 87.0879C152.855 87.2657 151.883 87.5245 150.945 88.2242C150.29 89.0249 149.879 89.585 149.857 90.5347C149.851 90.7187 149.846 90.9028 149.84 91.0924C149.835 91.3876 149.835 91.3876 149.83 91.6888C149.825 91.8917 149.819 92.0946 149.814 92.3037C149.797 92.951 149.784 93.5983 149.771 94.2456C149.76 94.6848 149.749 95.124 149.738 95.5632C149.711 96.6391 149.689 97.715 149.666 98.791C147.909 98.791 146.151 98.791 144.341 98.791C144.341 93.6876 144.341 88.5842 144.341 83.3262C146.098 83.3262 147.855 83.3262 149.666 83.3262C149.759 83.8089 149.851 84.2917 149.946 84.7891C150.143 84.6296 150.339 84.4701 150.542 84.3058C152.409 83.0046 153.899 82.9082 156.393 82.9082Z" fill="#0073D9"/>
<path d="M153.59 108.195C155.347 108.195 157.104 108.195 158.915 108.195C158.915 113.161 158.915 118.126 158.915 123.242C157.158 123.242 155.4 123.242 153.59 123.242C153.59 118.277 153.59 113.311 153.59 108.195Z" fill="#0073D9"/>
<path d="M185.261 108.195C186.926 108.195 188.59 108.195 190.306 108.195C190.306 113.161 190.306 118.126 190.306 123.242C188.641 123.242 186.976 123.242 185.261 123.242C185.261 118.277 185.261 113.311 185.261 108.195Z" fill="#0073D9"/>
<path d="M212.5 86.3564C213.72 86.8588 214.448 87.594 214.97 88.5508C214.97 88.8266 214.97 89.1025 214.97 89.3867C211.733 89.3867 208.495 89.3867 205.16 89.3867C206.108 87.2672 206.108 87.2672 207.122 86.7744C207.408 86.6289 207.408 86.6289 207.7 86.4805C209.243 85.831 210.903 85.8445 212.5 86.3564Z" fill="white"/>
<path d="M170.406 91.4766C170.499 91.4766 170.591 91.4766 170.687 91.4766C170.783 92.6808 170.783 93.575 169.846 94.6113C168.659 95.4493 167.552 95.8752 165.922 95.9436C165.064 95.9242 164.763 95.8497 163.977 95.5256C163.264 94.9129 163.097 94.5866 163.119 93.7754C163.452 93.2137 163.452 93.2137 164.24 92.7305C165.342 92.4468 166.461 92.2728 167.604 92.1035C169.124 91.9541 169.124 91.9541 170.406 91.4766Z" fill="white"/>
<path d="M158.022 102.605C159.006 103.192 159.157 103.584 159.318 104.512C159.157 105.504 158.798 105.868 157.794 106.523C156.637 106.84 155.782 106.791 154.623 106.497C153.771 106.054 153.404 105.784 153.029 105.061C153.056 103.958 153.385 103.333 154.431 102.553C155.706 102.236 156.78 102.194 158.022 102.605Z" fill="#0073D9"/>
<path d="M188.904 102.344C189.817 102.74 190.403 103.034 190.791 103.786C191.011 104.633 190.911 104.997 190.358 105.779C189.722 106.335 189.518 106.497 188.566 106.573C187.408 106.598 186.585 106.594 185.524 106.223C184.746 105.456 184.621 104.757 184.7 103.807C185.035 103.189 185.316 102.892 186.014 102.487C186.997 102.27 187.901 102.207 188.904 102.344Z" fill="#0073D9"/>
<path d="M220.295 88.3418C220.855 88.7598 220.855 88.7598 220.91 89.5777C220.906 89.9059 220.9 90.2341 220.891 90.5623C220.888 90.7298 220.885 90.8974 220.883 91.07C220.876 91.4842 220.866 91.8984 220.855 92.3125C220.004 92.4955 219.231 92.5525 218.346 92.5644C217.934 92.5706 217.934 92.5706 217.513 92.577C217.072 92.5823 217.072 92.5823 216.621 92.5876C216.166 92.5941 216.166 92.5941 215.702 92.6008C214.734 92.6144 213.766 92.6267 212.798 92.639C212.141 92.6481 211.485 92.6572 210.828 92.6664C209.219 92.6888 207.61 92.71 206.001 92.7305C206.001 93.1443 206.001 93.558 206.001 93.9844C205.816 93.9154 205.631 93.8464 205.44 93.7754C205.348 93.2237 205.255 92.672 205.16 92.1035C210.247 92.1035 215.334 92.1035 220.575 92.1035C220.436 90.2415 220.436 90.2415 220.295 88.3418Z" fill="white"/>
<path d="M73.7119 69.3242C74.0705 70.1273 74.0013 70.917 73.9582 71.7504C73.9516 71.9023 73.945 72.0542 73.9382 72.2107C73.9168 72.694 73.8932 73.1773 73.8696 73.6606C73.8546 73.9891 73.8399 74.3175 73.8252 74.646C73.7894 75.4496 73.7506 76.2531 73.7119 77.0566C71.0297 77.1256 68.3475 77.1946 65.584 77.2656C66.6596 76.731 67.373 76.6126 68.6352 76.6183C68.8981 76.6189 69.1609 76.6196 69.4317 76.6203C69.8422 76.6229 69.8422 76.6229 70.261 76.6256C70.6764 76.627 70.6764 76.627 71.1002 76.6285C71.784 76.6309 72.4677 76.6344 73.1514 76.6387C73.1481 76.366 73.1449 76.0934 73.1415 75.8125C73.0988 70.6957 73.0988 70.6957 73.7119 69.3242Z" fill="white"/>
<path d="M106.504 124.496C107.244 124.496 107.984 124.496 108.746 124.496C108.561 124.634 108.376 124.772 108.186 124.914C107.816 124.914 107.446 124.914 107.064 124.914C107.071 125.06 107.077 125.206 107.084 125.357C107.089 125.547 107.094 125.737 107.099 125.933C107.106 126.122 107.112 126.311 107.119 126.506C107.064 127.004 107.064 127.004 106.504 127.422C106.504 126.456 106.504 125.491 106.504 124.496Z" fill="white"/>
<path d="M80.4385 102.135C80.4385 103.132 79.6084 103.897 78.7568 104.643C78.5719 104.643 78.3869 104.643 78.1963 104.643C78.0749 104.843 78.0749 104.843 77.951 105.047C77.6357 105.479 77.6357 105.479 77.0752 105.688C77.5437 104.899 78.2169 104.24 78.9145 103.558C79.0299 103.444 79.1454 103.33 79.2643 103.213C80.1107 102.379 80.1107 102.379 80.4385 102.135Z" fill="white"/>
<path d="M168.444 86.252C168.629 86.3899 168.814 86.5278 169.005 86.6699C168.833 86.6802 168.66 86.6904 168.483 86.7009C168.256 86.7166 168.03 86.7322 167.796 86.7483C167.46 86.7701 167.46 86.7701 167.116 86.7924C166.406 86.8571 166.406 86.8571 165.642 87.2969C165.029 87.2185 165.029 87.2185 164.521 87.0879C165.824 86.3169 166.778 86.1842 168.444 86.252Z" fill="#1067D4"/>
<path d="M152.188 87.2969C152.466 87.3658 152.743 87.4348 153.029 87.5059C152.844 87.5059 152.659 87.5059 152.469 87.5059C152.469 87.6438 152.469 87.7817 152.469 87.9238C152.148 88.0467 152.148 88.0467 151.821 88.172C150.794 88.6884 150.639 89.1551 150.227 90.0137C150.016 89.6741 150.016 89.6741 149.946 89.1777C150.528 88.3908 151.117 87.7349 152.188 87.2969Z" fill="white"/>
</g>
<defs>
<clipPath id="clip0_1_2022">
<rect width="287" height="214" fill="white" transform="translate(0 -8)"/>
</clipPath>
</defs>
</svg>
