<svg width="118" height="118" viewBox="0 0 118 118" fill="none" xmlns="http://www.w3.org/2000/svg">
<path d="M97.0059 81.9264C99.439 78.9143 100.774 75.1636 100.792 71.2916C100.792 66.7277 98.9787 62.3507 95.7515 59.1235C92.5243 55.8963 88.1473 54.0833 83.5834 54.0833C79.0194 54.0833 74.6424 55.8963 71.4152 59.1235C68.188 62.3507 66.375 66.7277 66.375 71.2916C66.3925 75.1636 67.7277 78.9143 70.1609 81.9264C65.6509 84.2413 61.8087 87.6723 59 91.8925C56.1914 87.6723 52.3491 84.2413 47.8392 81.9264C50.2724 78.9143 51.6076 75.1636 51.625 71.2916C51.625 66.7277 49.812 62.3507 46.5848 59.1235C43.3576 55.8963 38.9806 54.0833 34.4167 54.0833C29.8528 54.0833 25.4757 55.8963 22.2486 59.1235C19.0214 62.3507 17.2084 66.7277 17.2084 71.2916C17.2258 75.1636 18.561 78.9143 20.9942 81.9264C16.159 84.3969 12.0994 88.1541 9.2627 92.7839C6.42596 97.4138 4.92207 102.737 4.91669 108.167C4.91669 109.471 5.43469 110.721 6.35675 111.643C7.2788 112.565 8.52937 113.083 9.83335 113.083H108.167C109.471 113.083 110.721 112.565 111.643 111.643C112.565 110.721 113.083 109.471 113.083 108.167C113.078 102.737 111.574 97.4138 108.737 92.7839C105.901 88.1541 101.841 84.3969 97.0059 81.9264ZM34.4167 63.9166C35.8753 63.9166 37.3012 64.3492 38.514 65.1595C39.7268 65.9699 40.6721 67.1217 41.2303 68.4693C41.7885 69.8169 41.9345 71.2998 41.65 72.7304C41.3654 74.161 40.663 75.4751 39.6316 76.5065C38.6002 77.5379 37.2861 78.2403 35.8555 78.5249C34.4249 78.8095 32.942 78.6634 31.5944 78.1052C30.2468 77.547 29.095 76.6018 28.2846 75.389C27.4742 74.1761 27.0417 72.7503 27.0417 71.2916C27.0417 69.3357 27.8187 67.4598 29.2018 66.0767C30.5849 64.6936 32.4607 63.9166 34.4167 63.9166ZM15.3695 103.25C16.4561 99.024 18.9172 95.2793 22.3654 92.6055C25.8137 89.9317 30.0532 88.4806 34.4167 88.4806C38.7801 88.4806 43.0197 89.9317 46.4679 92.6055C49.9162 95.2793 52.3773 99.024 53.4639 103.25H15.3695ZM83.5834 63.9166C85.042 63.9166 86.4679 64.3492 87.6807 65.1595C88.8935 65.9699 89.8388 67.1217 90.397 68.4693C90.9552 69.8169 91.1012 71.2998 90.8166 72.7304C90.5321 74.161 89.8297 75.4751 88.7983 76.5065C87.7668 77.5379 86.4528 78.2403 85.0221 78.5249C83.5915 78.8095 82.1087 78.6634 80.7611 78.1052C79.4135 77.547 78.2616 76.6018 77.4513 75.389C76.6409 74.1761 76.2084 72.7503 76.2084 71.2916C76.2084 69.3357 76.9854 67.4598 78.3684 66.0767C79.7515 64.6936 81.6274 63.9166 83.5834 63.9166ZM64.5362 103.25C65.6227 99.024 68.0839 95.2793 71.5321 92.6055C74.9804 89.9317 79.2199 88.4806 83.5834 88.4806C87.9468 88.4806 92.1863 89.9317 95.6346 92.6055C99.0828 95.2793 101.544 99.024 102.631 103.25H64.5362ZM29.5 9.83329V39.3333C29.5 40.6373 30.018 41.8878 30.9401 42.8099C31.8621 43.732 33.1127 44.25 34.4167 44.25H48.5029L55.224 52.3182C55.6855 52.8715 56.2628 53.3167 56.9154 53.6222C57.5679 53.9277 58.2795 54.086 59 54.086C59.7205 54.086 60.4322 53.9277 61.0847 53.6222C61.7372 53.3167 62.3146 52.8715 62.776 52.3182L69.4971 44.25H83.5834C84.8873 44.25 86.1379 43.732 87.06 42.8099C87.982 41.8878 88.5 40.6373 88.5 39.3333V9.83329C88.5 8.52931 87.982 7.27874 87.06 6.35668C86.1379 5.43463 84.8873 4.91663 83.5834 4.91663H34.4167C33.1127 4.91663 31.8621 5.43463 30.9401 6.35668C30.018 7.27874 29.5 8.52931 29.5 9.83329ZM39.3334 14.75H78.6667V34.4166H67.1961C66.475 34.4156 65.7625 34.5731 65.1091 34.8782C64.4557 35.1832 63.8774 35.6282 63.4152 36.1817L59 41.4868L54.575 36.1817C54.1139 35.6295 53.5371 35.1852 52.8855 34.8803C52.234 34.5753 51.5234 34.417 50.8039 34.4166H39.3334V14.75Z" fill="#0073D9"/>
</svg>
