<svg width="217" height="207" viewBox="0 0 217 207" fill="none" xmlns="http://www.w3.org/2000/svg">
<path d="M125.541 118.905C123.819 119.184 122.17 119.829 120.698 120.8C116.855 123.259 114.801 127.055 116.11 129.279C117.419 131.502 121.595 131.31 125.437 128.851C126.934 127.921 128.232 126.68 129.251 125.207C129.722 124.493 129.744 123.557 129.309 122.819L127.608 119.931C127.175 119.191 126.364 118.789 125.541 118.905Z" fill="#D5D6DB"/>
<path d="M112.469 80.341C111.22 80.5434 110.025 81.0114 108.957 81.7155C106.171 83.4981 104.681 86.2509 105.629 87.8617C106.578 89.4726 109.607 89.3329 112.392 87.5504C113.477 86.8756 114.418 85.9759 115.157 84.9075C115.498 84.3902 115.514 83.7118 115.198 83.177L113.967 81.0856C113.653 80.5494 113.066 80.2573 112.469 80.341Z" fill="#D5D6DB"/>
<path d="M96.0374 80.541C95.7516 80.4832 95.4559 80.5396 95.2079 80.6988L88.6652 84.8866C88.1179 85.2357 87.9454 85.9815 88.2805 86.5528C88.3571 86.6837 88.4571 86.7983 88.5747 86.8901L106.576 101.01L128.392 87.0463L96.0374 80.541Z" fill="#0073D9"/>
<path d="M168.721 84.8012L109.305 122.296L73.4384 135.179L54.8342 137.671L52.4594 133.669L151.603 72.5407C154.557 70.7101 157.928 69.7164 161.375 69.6607C162.885 69.6451 164.391 69.8252 165.859 70.1961C167.159 70.514 168.408 71.0222 169.569 71.7056C170.866 72.4783 173.242 72.7532 174.112 74.1498C174.114 74.1479 176.395 80.4165 168.721 84.8012Z" fill="#E1E6E9"/>
<path d="M109.696 116.697L86.1657 161.231C85.8774 161.86 86.135 162.613 86.7405 162.913C87.1121 163.097 87.5479 163.073 87.8983 162.849L94.4379 158.685C95.6957 157.884 96.7824 156.823 97.6311 155.569L145.092 93.0277L109.696 116.697Z" fill="#0073D9"/>
<path d="M41.149 109.475C40.6837 109.269 40.1521 109.311 39.7217 109.587L34.3176 113.043C33.5812 113.513 33.3504 114.517 33.8019 115.285C33.8879 115.43 33.9951 115.562 34.12 115.673L51.1696 130.861L67.1059 120.903L41.149 109.475Z" fill="#0073D9"/>
<path d="M56.714 133.795L49.1098 146.122C48.9981 146.299 49.0458 146.537 49.2164 146.653C49.3394 146.737 49.4986 146.737 49.6215 146.653L54.6737 143.44C54.7129 143.415 54.7477 143.383 54.7756 143.345L66.0795 127.846L56.714 133.795Z" fill="#0073D9"/>
<path d="M164.875 70.6681C163.364 70.2844 161.813 70.1 160.257 70.1183C158.909 72.2992 158.133 74.8107 158.007 77.4024C158.023 77.9265 158.444 78.3379 158.947 78.3213C159.104 78.3159 159.256 78.269 159.39 78.1847L168.697 72.2325C167.501 71.5234 166.214 70.9967 164.875 70.6681Z" fill="#0073D9"/>
<path d="M144.414 81.338L150.492 77.4897L157.311 88.9846L151.233 92.8329L144.414 81.338Z" fill="#D5D6DB"/>
<path d="M140.71 85.3571C139.977 85.8225 139.746 86.8152 140.195 87.5743L140.921 88.804C141.393 89.5468 142.358 89.7509 143.075 89.26C143.757 88.7924 143.975 87.857 143.572 87.1194L142.846 85.8896C142.398 85.1311 141.442 84.8926 140.71 85.3571Z" fill="#3A556A"/>
<path d="M135.24 88.7534C134.507 89.2187 134.276 90.2114 134.725 90.9705L135.451 92.2003C135.923 92.943 136.888 93.1472 137.605 92.6562C138.287 92.1886 138.505 91.2533 138.102 90.5156L137.376 89.2858C136.928 88.5276 135.972 88.2891 135.24 88.7534Z" fill="#3A556A"/>
<path d="M129.768 92.1543C129.036 92.6204 128.807 93.612 129.254 94.3704L129.981 95.6001C130.453 96.3428 131.418 96.547 132.135 96.056C132.817 95.5884 133.035 94.6531 132.632 93.9155L131.906 92.6857C131.458 91.9267 130.501 91.6888 129.768 92.1543Z" fill="#3A556A"/>
<path d="M124.298 95.5486C123.566 96.0147 123.337 97.0063 123.784 97.7647L124.511 98.9945C124.983 99.7372 125.948 99.9414 126.665 99.4504C127.347 98.9828 127.565 98.0475 127.162 97.3098L126.436 96.08C125.987 95.3211 125.03 95.0832 124.298 95.5486Z" fill="#3A556A"/>
<path d="M118.829 98.947C118.097 99.4133 117.867 100.405 118.315 101.164L119.042 102.394C119.489 103.153 120.446 103.391 121.178 102.925C121.91 102.46 122.141 101.468 121.693 100.71L120.966 99.4797C120.519 98.7207 119.563 98.4819 118.83 98.946C118.83 98.9464 118.829 98.9466 118.829 98.947Z" fill="#3A556A"/>
<path d="M113.359 102.342C112.627 102.808 112.397 103.8 112.846 104.559L113.572 105.79C114.02 106.548 114.977 106.786 115.709 106.321C116.441 105.855 116.671 104.864 116.224 104.105L115.497 102.875C115.05 102.116 114.094 101.877 113.361 102.341C113.36 102.342 113.36 102.342 113.359 102.342Z" fill="#3A556A"/>
<path d="M107.89 105.741C107.158 106.208 106.928 107.199 107.376 107.958L108.102 109.189C108.551 109.946 109.508 110.183 110.239 109.717C110.969 109.252 111.199 108.262 110.753 107.504L110.027 106.274C109.579 105.515 108.622 105.277 107.89 105.741Z" fill="#3A556A"/>
<path d="M102.419 109.137C101.688 109.603 101.458 110.595 101.906 111.354L102.632 112.584C103.081 113.342 104.038 113.579 104.769 113.113C105.499 112.648 105.729 111.658 105.283 110.9L104.557 109.67C104.109 108.911 103.152 108.672 102.419 109.137Z" fill="#3A556A"/>
<path d="M96.9494 112.534C96.2174 113.001 95.9875 113.993 96.4356 114.751L97.1622 115.982C97.611 116.739 98.568 116.976 99.2993 116.51C100.029 116.045 100.259 115.055 99.8132 114.297L99.0867 113.067C98.6386 112.308 97.6819 112.07 96.9494 112.534Z" fill="#3A556A"/>
<path d="M91.4779 115.933C90.7458 116.398 90.5153 117.39 90.9632 118.148L90.9642 118.15L91.6907 119.38C92.1396 120.138 93.0965 120.374 93.8278 119.908C94.5579 119.443 94.7878 118.453 94.3418 117.696L93.6152 116.466C93.1675 115.707 92.2108 115.468 91.4779 115.933Z" fill="#3A556A"/>
<path d="M86.0096 119.328C85.2774 119.793 85.0469 120.785 85.4948 121.544L85.4958 121.545L86.2224 122.775C86.6712 123.533 87.6282 123.769 88.3595 123.304C89.0896 122.839 89.3195 121.849 88.8735 121.091L88.1469 119.861C87.6988 119.102 86.7421 118.864 86.0096 119.328Z" fill="#3A556A"/>
</svg>
