<svg width="40" height="40" viewBox="0 0 40 40" fill="none" xmlns="http://www.w3.org/2000/svg">
<path fill-rule="evenodd" clip-rule="evenodd" d="M23.0052 8.8888C23.0052 5.82055 25.5038 3.33325 28.586 3.33325C31.6682 3.33325 34.1668 5.82055 34.1668 8.8888C34.1668 11.9571 31.6682 14.4444 28.586 14.4444C27.0297 14.4444 25.6232 13.8099 24.612 12.789L16.8863 18.0491C16.9577 18.4041 16.9952 18.7708 16.9952 19.1453C16.9952 19.8869 16.8485 20.5959 16.5828 21.2439L25.054 26.8096C26.0155 26.0268 27.2457 25.5554 28.586 25.5554C31.6682 25.5554 34.1668 28.0428 34.1668 31.1111C34.1668 34.1793 31.6682 36.6666 28.586 36.6666C25.5038 36.6666 23.0052 34.1793 23.0052 31.1111C23.0052 30.3074 23.1772 29.5424 23.4863 28.8518L15.0836 23.3311C14.1034 24.1829 12.8195 24.7008 11.4143 24.7008C8.33211 24.7008 5.8335 22.2134 5.8335 19.1453C5.8335 16.077 8.33211 13.5897 11.4143 13.5897C13.1867 13.5897 14.7644 14.412 15.7859 15.6919L23.2733 10.594C23.0992 10.0559 23.0052 9.48259 23.0052 8.8888Z" fill="white"/>
</svg>
