<svg width="107" height="107" viewBox="0 0 107 107" fill="none" xmlns="http://www.w3.org/2000/svg">
<path d="M40.9065 51.4976L18.6212 99.1281L29.8188 97.1101L49.3188 55.433L40.9065 51.4976Z" fill="#E56353"/>
<path d="M49.3188 55.4331L29.8188 97.1102L35.4453 107L57.7308 59.3692L49.3188 55.4331Z" fill="#CE412D"/>
<path d="M66.0935 51.4976L88.3788 99.1281L77.1814 97.1101L57.6814 55.433L66.0935 51.4976Z" fill="#E56353"/>
<path d="M57.6814 55.4331L77.1814 97.1102L71.5547 107L49.2692 59.3692L57.6814 55.4331Z" fill="#D15241"/>
<path d="M85.731 40.7178L89.9743 36.4743L85.731 32.2311L88.7317 27.0343L83.5345 24.0336L85.0878 18.2374L79.2913 16.6839V10.683H73.2904L71.7374 4.88653L65.9409 6.43998L62.9404 1.2428L57.7433 4.24325L53.5 0L49.2567 4.24325L44.0598 1.2428L41.0593 6.43998L35.2628 4.88653L33.7098 10.683H27.7087V16.6839L21.9124 18.2374L23.4655 24.0336L18.2685 27.0341L21.2689 32.2311L17.0257 36.4743L21.2689 40.7178L18.2685 45.9147L23.4655 48.9152L21.9124 54.7117L27.7087 56.2649V62.2658H33.7098L35.2628 68.0623L41.0593 66.5091L44.0598 71.7058L49.2567 68.7056L53.5 72.9488L57.7433 68.7056L62.9404 71.7058L65.9409 66.5091L71.7374 68.0623L73.2904 62.2658H79.2913V56.2649L85.0878 54.7117L83.5345 48.9152L88.7317 45.9147L85.731 40.7178Z" fill="#FCD462"/>
<path d="M53.5007 62.6394C39.0731 62.6394 27.336 50.9021 27.336 36.4748C27.336 22.0472 39.0733 10.3088 53.5007 10.3088C67.9282 10.3088 79.6655 22.047 79.6655 36.4748C79.6655 50.9023 67.9282 62.6394 53.5007 62.6394ZM53.5007 14.1999C41.218 14.1999 31.2268 24.1922 31.2268 36.4748C31.2268 48.7563 41.218 58.7486 53.5007 58.7486C65.7833 58.7486 75.7745 48.7563 75.7745 36.4748C75.7745 24.1922 65.7833 14.1999 53.5007 14.1999Z" fill="#E56353"/>
</svg>
