<svg width="82" height="82" viewBox="0 0 82 82" fill="none" xmlns="http://www.w3.org/2000/svg">
<g filter="url(#filter0_d_1_45)">
<path fill-rule="evenodd" clip-rule="evenodd" d="M40.5688 65.1761C55.6282 65.1761 67.8363 52.968 67.8363 37.9086C67.8363 22.8492 55.6282 10.6411 40.5688 10.6411C25.5093 10.6411 13.3013 22.8492 13.3013 37.9086C13.3013 52.968 25.5093 65.1761 40.5688 65.1761Z" fill="white"/>
</g>
<path fill-rule="evenodd" clip-rule="evenodd" d="M44.0383 34.9097C43.6126 34.775 43.123 34.6853 42.676 34.6853C42.1226 34.6853 40.9306 35.0668 40.9306 35.8076V37.5809H43.7616V40.5663H40.9306V48.8042H38.0782V40.5663H36.6733V37.5809H38.0782V36.0769C38.0782 33.8098 39.0574 31.9243 41.4201 31.9243C42.229 31.9243 43.6765 31.9692 44.4641 32.261L44.0383 34.9097Z" fill="#080809"/>
<defs>
<filter id="filter0_d_1_45" x="5.43594e-05" y="0.000140905" width="81.1375" height="81.1376" filterUnits="userSpaceOnUse" color-interpolation-filters="sRGB">
<feFlood flood-opacity="0" result="BackgroundImageFix"/>
<feColorMatrix in="SourceAlpha" type="matrix" values="0 0 0 0 0 0 0 0 0 0 0 0 0 0 0 0 0 0 127 0" result="hardAlpha"/>
<feOffset dy="2.66024"/>
<feGaussianBlur stdDeviation="6.65061"/>
<feColorMatrix type="matrix" values="0 0 0 0 0 0 0 0 0 0 0 0 0 0 0 0 0 0 0.1 0"/>
<feBlend mode="normal" in2="BackgroundImageFix" result="effect1_dropShadow_1_45"/>
<feBlend mode="normal" in="SourceGraphic" in2="effect1_dropShadow_1_45" result="shape"/>
</filter>
</defs>
</svg>
