<svg width="60" height="60" viewBox="0 0 60 60" fill="none" xmlns="http://www.w3.org/2000/svg">
<path d="M26.6656 21.1965H24.3584V23.5018H26.6656V21.1965Z" fill="#0073D9"/>
<path d="M31.6668 21.1965H29.3597V23.5018H31.6668V21.1965Z" fill="#0073D9"/>
<path d="M36.668 21.1965H34.361V23.5018H36.668V21.1965Z" fill="#0073D9"/>
<path d="M26.6656 26.0759H24.3584V28.383H26.6656V26.0759Z" fill="#0073D9"/>
<path d="M31.6668 26.0759H29.3597V28.383H31.6668V26.0759Z" fill="#0073D9"/>
<path d="M36.668 26.0759H34.361V28.383H36.668V26.0759Z" fill="#0073D9"/>
<path d="M26.6656 30.9583H24.3584V33.2636H26.6656V30.9583Z" fill="#0073D9"/>
<path d="M31.6668 30.9583H29.3597V33.2636H31.6668V30.9583Z" fill="#0073D9"/>
<path d="M36.668 30.9583H34.361V33.2636H36.668V30.9583Z" fill="#0073D9"/>
<path d="M26.6656 35.8376H24.3584V38.1447H26.6656V35.8376Z" fill="#0073D9"/>
<path d="M31.6668 35.8376H29.3597V38.1447H31.6668V35.8376Z" fill="#0073D9"/>
<path d="M36.668 35.8376H34.361V38.1447H36.668V35.8376Z" fill="#0073D9"/>
<path d="M26.6656 40.719H24.3584V43.0252H26.6656V40.719Z" fill="#0073D9"/>
<path d="M10.6403 28.384H8.33496V30.6903H10.6403V28.384Z" fill="#0073D9"/>
<path d="M10.6403 33.2654H8.33496V35.5716H10.6403V33.2654Z" fill="#0073D9"/>
<path d="M10.6403 38.1467H8.33496V40.4529H10.6403V38.1467Z" fill="#0073D9"/>
<path d="M10.6403 43.0271H8.33496V45.3333H10.6403V43.0271Z" fill="#0073D9"/>
<path d="M10.6403 47.9075H8.33496V50.2137H10.6403V47.9075Z" fill="#0073D9"/>
<path d="M16.4105 28.384H14.1052V30.6903H16.4105V28.384Z" fill="#0073D9"/>
<path d="M16.4105 33.2654H14.1052V35.5716H16.4105V33.2654Z" fill="#0073D9"/>
<path d="M16.4105 38.1467H14.1052V40.4529H16.4105V38.1467Z" fill="#0073D9"/>
<path d="M16.4105 43.0271H14.1052V45.3333H16.4105V43.0271Z" fill="#0073D9"/>
<path d="M16.4105 47.9075H14.1052V50.2137H16.4105V47.9075Z" fill="#0073D9"/>
<path d="M31.6668 40.719H29.3597V43.0252H31.6668V40.719Z" fill="#0073D9"/>
<path d="M36.668 40.719H34.361V43.0252H36.668V40.719Z" fill="#0073D9"/>
<path d="M26.6656 45.6003H24.3584V47.9066H26.6656V45.6003Z" fill="#0073D9"/>
<path d="M31.6668 45.6003H29.3597V47.9066H31.6668V45.6003Z" fill="#0073D9"/>
<path d="M36.668 45.6003H34.361V47.9066H36.668V45.6003Z" fill="#0073D9"/>
<path d="M51.539 35.321H43.8469V36.6628H51.539V35.321Z" fill="#0073D9"/>
<path d="M51.539 39.2512H43.8469V40.5922H51.539V39.2512Z" fill="#0073D9"/>
<path d="M51.539 43.1785H43.8469V44.5204H51.539V43.1785Z" fill="#0073D9"/>
<path d="M51.539 47.1069H43.8469V48.4488H51.539V47.1069Z" fill="#0073D9"/>
<path d="M56.9238 55.7274V29.5743H42.0513V15.7266H36.9782V11.2368H35.4402V7.34954H31.4006V1.19556H29.6068V7.34954H25.5865V11.2368H24.0484V15.7266H18.9752V22.9614H3.07781V55.7274H0V58.8045H3.84691H19.7442H21.2822H39.7441H41.2821H56.1547H60V55.7274H56.9238ZM19.7442 56.4965H13.7987V52.3947H11.3305V56.4965H5.385V25.2693H19.7443V56.4965H19.7442ZM27.8934 9.65755H33.1313V11.7859H27.8934V9.65755ZM26.3571 13.5438H34.671V16.4965H26.3571V13.5438ZM39.7443 30.3434V56.4963H32.4359V50.8566H28.5907V56.4963H21.2823V23.7313V18.0345H24.8174H36.2092H39.7443V30.3434ZM54.615 56.4965H49.1827V52.3947H46.7145V56.4965H41.2821V31.8815H54.6149V56.4965H54.615Z" fill="#0073D9"/>
</svg>
