<svg width="60" height="60" viewBox="0 0 60 60" fill="none" xmlns="http://www.w3.org/2000/svg">
<g clip-path="url(#clip0_33_966)">
<path d="M59.9063 54.6562L43.0313 25.5937C42.8438 25.3125 42.4688 25.0313 42.0938 25.0313C41.7188 25.0313 41.3438 25.2187 41.1563 25.5937L33.6563 38.625L29.1562 30.8438C29.1562 30.75 29.0625 30.75 29.0625 30.6563L22.5 19.125C22.125 18.4687 21.0937 18.4687 20.7187 19.125L14.1563 30.5625C14.0625 30.6562 13.9688 30.8437 13.875 30.9375L0.09375 54.6562C-0.09375 54.9375 -0.09375 55.4063 0.09375 55.6875C0.28125 55.9688 0.65625 56.25 1.03125 56.25H42.1875H58.9688C59.3438 56.25 59.7188 56.0625 59.9063 55.6875C60 55.4063 60 55.0312 59.9063 54.6562ZM42.1875 28.2188L45.6562 34.2188L44.5312 35.3438L42.75 33.5625C42.375 33.1875 41.7187 33.1875 41.25 33.5625L39.5625 35.25L38.625 34.3125L42.1875 28.2188ZM21.5625 21.6563L27 31.0312L24.9375 33.0937L22.0312 30.1875C21.6562 29.8125 21 29.8125 20.5312 30.1875L17.9062 32.8125L16.125 31.0312L21.5625 21.6563ZM15.0937 32.9062L17.25 35.0625C17.625 35.4375 18.2812 35.4375 18.75 35.0625L21.375 32.4375L24.2812 35.3438C24.4687 35.5313 24.75 35.625 25.0312 35.625C25.3125 35.625 25.5937 35.5313 25.7812 35.3438L28.2187 32.9062L40.3125 53.9062L40.5 54.1875H2.8125L15.0937 32.9062ZM42.75 54.1875L34.9687 40.6875L37.5937 36.0938L38.9062 37.4063C39.2812 37.7813 39.9375 37.7813 40.4062 37.4063L42.0938 35.7187L43.875 37.5C44.0625 37.6875 44.3437 37.7812 44.625 37.7812C44.9062 37.7812 45.1875 37.6875 45.375 37.5L46.7813 36.0938L57.1875 54.1875H42.75Z" fill="#0073D9"/>
<path d="M36.6562 15.5625C38.5312 15.5625 40.0313 14.0625 40.0313 12.1875C40.0313 10.3125 38.5312 8.8125 36.6562 8.8125C34.7812 8.8125 33.2812 10.3125 33.2812 12.1875C33.2812 14.0625 34.7812 15.5625 36.6562 15.5625ZM36.6562 10.875C37.4062 10.875 37.9688 11.4375 37.9688 12.1875C37.9688 12.9375 37.4062 13.5 36.6562 13.5C35.9062 13.5 35.3438 12.9375 35.3438 12.1875C35.3438 11.4375 36 10.875 36.6562 10.875Z" fill="#0073D9"/>
<path d="M36.6562 7.59375C37.2187 7.59375 37.6875 7.125 37.6875 6.5625V4.78125C37.6875 4.21875 37.2187 3.75 36.6562 3.75C36.0937 3.75 35.625 4.21875 35.625 4.78125V6.5625C35.625 7.125 36.0937 7.59375 36.6562 7.59375Z" fill="#0073D9"/>
<path d="M35.625 17.8125V19.5938C35.625 20.1563 36.0937 20.625 36.6562 20.625C37.2187 20.625 37.6875 20.1563 37.6875 19.5938V17.8125C37.6875 17.25 37.2187 16.7812 36.6562 16.7812C36.0937 16.7812 35.625 17.25 35.625 17.8125Z" fill="#0073D9"/>
<path d="M41.25 12.1875C41.25 12.75 41.7187 13.2188 42.2812 13.2188H44.0625C44.625 13.2188 45.0937 12.75 45.0937 12.1875C45.0937 11.625 44.625 11.1562 44.0625 11.1562H42.2812C41.7187 11.1562 41.25 11.625 41.25 12.1875Z" fill="#0073D9"/>
<path d="M29.25 13.2188H31.0312C31.5937 13.2188 32.0625 12.75 32.0625 12.1875C32.0625 11.625 31.5937 11.1562 31.0312 11.1562H29.25C28.6875 11.1562 28.2188 11.625 28.2188 12.1875C28.2188 12.75 28.6875 13.2188 29.25 13.2188Z" fill="#0073D9"/>
<path d="M40.6875 9.28125C40.9688 9.28125 41.25 9.1875 41.4375 9L42.75 7.6875C43.125 7.3125 43.125 6.65625 42.75 6.1875C42.375 5.8125 41.7188 5.8125 41.25 6.1875L39.9375 7.5C39.5625 7.875 39.5625 8.53125 39.9375 9C40.125 9.1875 40.4063 9.28125 40.6875 9.28125Z" fill="#0073D9"/>
<path d="M31.9687 15.4688L30.6563 16.7812C30.2813 17.1562 30.2813 17.8125 30.6563 18.2812C30.8438 18.4688 31.125 18.5625 31.4062 18.5625C31.6875 18.5625 31.9687 18.4688 32.1562 18.2812L33.4687 16.9688C33.8437 16.5938 33.8437 15.9375 33.4687 15.4688C33 15 32.3437 15 31.9687 15.4688Z" fill="#0073D9"/>
<path d="M39.9375 15.4688C39.5625 15.8438 39.5625 16.5 39.9375 16.9688L41.25 18.2812C41.4375 18.4688 41.7188 18.5625 42 18.5625C42.2813 18.5625 42.5625 18.4688 42.75 18.2812C43.125 17.9062 43.125 17.25 42.75 16.7812L41.4375 15.4688C40.9688 15 40.3125 15 39.9375 15.4688Z" fill="#0073D9"/>
<path d="M31.9687 9C32.1562 9.1875 32.4375 9.28125 32.7188 9.28125C33 9.28125 33.2812 9.1875 33.4687 9C33.8437 8.625 33.8437 7.96875 33.4687 7.5L32.1562 6.1875C31.7812 5.8125 31.125 5.8125 30.6563 6.1875C30.2813 6.5625 30.2813 7.21875 30.6563 7.6875L31.9687 9Z" fill="#0073D9"/>
</g>
<defs>
<clipPath id="clip0_33_966">
<rect width="60" height="60" fill="white"/>
</clipPath>
</defs>
</svg>
