<svg width="165" height="96" viewBox="0 0 165 96" fill="none" xmlns="http://www.w3.org/2000/svg">
<rect width="165" height="96" fill="white"/>
<path d="M35.5445 17.0039C35.8732 17.0033 36.2019 17.0023 36.5306 17.0011C37.2156 16.9997 37.9004 17.0017 38.5854 17.0063C39.4581 17.0118 40.3303 17.0086 41.203 17.0028C41.8804 16.9993 42.5578 17.0005 43.2353 17.003C43.5568 17.0036 43.8784 17.0028 44.1999 17.0006C46.4003 16.9884 48.0392 17.1647 49.6833 18.4325C51.6511 20.1079 51.4536 22.1162 51.4091 24.2848C51.4055 24.5851 51.4023 24.8854 51.3994 25.1857C51.3917 25.9164 51.3796 26.6471 51.365 27.3778C51.5235 27.3737 51.682 27.3697 51.8453 27.3655C52.576 27.3492 53.3066 27.3393 54.0374 27.3294C54.2867 27.323 54.5359 27.3165 54.7927 27.3098C57.2487 27.285 59.0485 27.7745 60.8368 29.1719C63.0228 31.0082 62.9806 32.8639 62.9718 35.2822C62.9731 35.6142 62.9748 35.9462 62.9767 36.2781C62.9809 37.1768 62.9806 38.0755 62.9793 38.9742C62.9785 39.7259 62.98 40.4777 62.9814 41.2295C62.9847 43.004 62.9843 44.7786 62.9816 46.5531C62.9789 48.3801 62.9822 50.2071 62.9885 52.0341C62.9938 53.6059 62.9953 55.1777 62.9939 56.7495C62.9931 57.6869 62.9937 58.6242 62.9978 59.5615C63.0014 60.4436 63.0004 61.3256 62.996 62.2076C62.9952 62.53 62.9959 62.8524 62.9984 63.1747C63.0166 65.7468 62.6671 67.7662 60.4073 69.6803C58.8186 70.8193 57.2072 71.2192 55.124 71.2593C55.1349 71.439 55.1458 71.6186 55.157 71.8037C55.2441 74.2582 55.2441 74.2582 54.1843 75.3188C53.284 76.0147 52.2526 76.0187 51.0668 75.9924C50.0411 75.8427 49.3956 75.4189 48.7807 74.7389C48.3109 73.7723 48.3109 73.7723 48.3109 71.2593C42.4962 71.2593 36.6816 71.2593 30.6907 71.2593C30.6907 72.1524 30.6907 73.0455 30.6907 73.9657C30.3147 74.7334 29.9882 75.1355 29.2664 75.6934C28.1684 76.0202 27.1419 76.0666 25.992 75.8988C25.0996 75.5075 24.5334 75.0356 24.0712 74.2979C23.8368 73.6617 23.832 73.1191 23.8482 72.4554C23.8525 72.2309 23.8567 72.0064 23.8611 71.7751C23.8665 71.6049 23.872 71.4347 23.8776 71.2593C23.7298 71.2543 23.582 71.2493 23.4298 71.2442C21.1439 71.1196 19.6275 70.4473 18.0042 69.1329C17.2994 68.4594 17.2994 68.4594 17.2994 67.973C17.6497 67.716 18.0153 67.4729 18.386 67.236C19.4922 66.5091 20.5404 65.7498 21.5723 64.9525C22.5655 64.1859 23.5623 63.4277 24.5934 62.6955C25.5412 62.017 26.4696 61.3203 27.4016 60.6272C28.338 61.3457 29.0274 62.0929 29.7069 62.9832C29.8503 63.1654 29.8503 63.1654 29.9965 63.3513C30.6907 64.249 30.6907 64.249 30.6907 64.6867C31.311 64.304 31.9312 63.9212 32.5702 63.5269C32.5275 63.3845 32.4848 63.2422 32.4408 63.0955C32.2479 62.4502 32.0566 61.8045 31.8654 61.1588C31.7982 60.9348 31.7309 60.7108 31.6617 60.48C31.5981 60.2644 31.5345 60.0489 31.469 59.8268C31.4099 59.6284 31.3508 59.43 31.29 59.2255C31.1606 58.6941 31.1606 58.6941 31.1606 57.9209C31.6214 57.566 32.063 57.2701 32.5702 56.9664C32.873 56.7782 33.1756 56.5896 33.4778 56.4008C33.637 56.3022 33.7962 56.2036 33.9602 56.1021C34.7791 55.5874 35.5755 55.0504 36.3732 54.5138C36.5306 54.4086 36.688 54.3034 36.8502 54.195C37.5704 53.7132 38.2873 53.2287 38.9961 52.7355C39.3404 52.4974 39.3404 52.4974 39.6917 52.2544C39.8894 52.1156 40.0872 51.9768 40.291 51.8338C40.7929 51.5416 40.7929 51.5416 41.4978 51.5416C41.6237 51.7322 41.7497 51.9229 41.8795 52.1193C43.426 54.442 45.058 56.72 46.7058 58.9946C47.5635 60.1787 48.4092 61.3683 49.2506 62.5603C50.2528 62.3213 50.2528 62.3213 51.1007 61.8475C51.6832 60.8622 51.3379 59.8017 50.9806 58.7941C50.8967 58.5541 50.8128 58.3142 50.7263 58.0669C50.6336 57.8085 50.5409 57.5502 50.4482 57.2919C50.3538 57.0236 50.2595 56.7552 50.1655 56.4868C49.9183 55.7829 49.6687 55.0796 49.4184 54.3764C49.0181 53.2507 48.6213 52.124 48.2249 50.9973C48.0866 50.6054 47.9472 50.2138 47.8076 49.8222C47.6806 49.4632 47.6806 49.4632 47.5511 49.0969C47.4765 48.8872 47.4019 48.6775 47.325 48.4614C46.8089 46.8413 46.8089 46.8413 47.2335 46.2324C47.4049 46.0746 47.5763 45.9169 47.7529 45.7544C47.9479 45.5707 48.143 45.3871 48.3439 45.1978C48.4519 45.0991 48.5598 45.0004 48.6711 44.8987C49.0343 44.5653 49.3908 44.2276 49.7462 43.8885C50.2615 43.3968 50.7777 42.9059 51.2953 42.416C51.4238 42.2942 51.5524 42.1725 51.6849 42.047C51.9388 41.8068 52.193 41.5667 52.4475 41.3268C52.8027 40.9914 53.156 40.6546 53.5088 40.3175C53.6143 40.2186 53.7198 40.1197 53.8285 40.0178C54.6565 39.2226 55.3039 38.463 55.4323 37.4058C55.3587 36.8484 55.2834 36.531 54.8891 36.0768C54.08 35.5836 53.2814 35.607 52.3048 35.6901C51.2114 36.2251 50.265 36.8781 49.3093 37.5628C49.0934 37.7162 49.0934 37.7162 48.8731 37.8727C48.0351 38.4698 47.2078 39.0757 46.3873 39.6892C45.5632 40.3024 44.7277 40.9019 43.8765 41.4895C43.6687 41.633 43.461 41.7765 43.2469 41.9244C42.5646 42.3262 42.0957 42.4946 41.2546 42.4052C40.9938 42.3511 40.9938 42.3511 40.7278 42.2959C40.52 42.2538 40.3121 42.2117 40.098 42.1684C39.867 42.1197 39.636 42.0711 39.398 42.0211C39.1528 41.9713 38.9076 41.9216 38.6549 41.8704C37.514 41.6387 36.3744 41.4028 35.2348 41.1668C33.8242 40.8749 32.4131 40.5848 31.0015 40.2965C30.2847 40.1494 29.5687 39.9999 28.8526 39.8503C28.4045 39.7585 27.9563 39.6668 27.5081 39.5752C27.3015 39.5314 27.0949 39.4875 26.8821 39.4424C25.4967 39.152 25.4967 39.152 24.1125 39.363C23.5336 39.7893 23.5336 39.7893 23.1728 40.3296C23.1551 40.7214 23.1551 40.7214 23.4077 41.1028C23.9803 41.4696 23.9803 41.4696 24.7146 41.7953C24.8497 41.8593 24.9849 41.9234 25.1241 41.9894C25.5685 42.1995 26.0152 42.4063 26.4619 42.6131C26.925 42.8311 27.3876 43.05 27.8501 43.2689C28.1665 43.4184 28.483 43.5677 28.7997 43.7167C30.4081 44.4738 31.9967 45.2569 33.5834 46.0443C33.8367 46.1698 34.09 46.2952 34.351 46.4244C34.9323 46.7122 35.5134 47.0004 36.0942 47.2888C35.7701 47.8573 35.3953 48.3482 34.9416 48.8526C34.8067 49.0031 34.6717 49.1535 34.5327 49.3085C34.389 49.4673 34.2453 49.6261 34.0973 49.7897C33.9501 49.9533 33.803 50.1168 33.6513 50.2853C32.6165 51.4322 31.5664 52.5687 30.4989 53.6952C29.9191 54.3199 29.3665 54.9615 28.8113 55.6011C26.4854 55.346 24.1595 55.0908 21.7632 54.8279C21.4531 55.2106 21.143 55.5934 20.8235 55.9878C21.352 56.3302 21.8806 56.6725 22.4093 57.0147C22.5583 57.1113 22.7073 57.2078 22.8608 57.3073C23.5855 57.7763 24.3111 58.2429 25.0523 58.6941C24.6789 59.4542 24.0742 59.9178 23.3637 60.4822C22.6056 61.0915 21.8623 61.7019 21.1759 62.367C20.4997 63.0201 19.7738 63.6254 19.0321 64.2276C18.1651 64.9332 17.3466 65.6371 16.5946 66.4265C16.0157 65.7121 16.0646 65.3574 16.0619 64.5043C16.0609 64.3669 16.0598 64.2295 16.0587 64.0879C16.0557 63.6262 16.0561 63.1646 16.0565 62.7029C16.0551 62.3724 16.0535 62.0418 16.0517 61.7113C16.0476 60.8122 16.0465 59.9131 16.0462 59.014C16.0457 58.2632 16.044 57.5124 16.0423 56.7616C16.0385 54.9894 16.0373 53.2172 16.0377 51.445C16.038 49.6183 16.033 47.7917 16.0256 45.9651C16.0194 44.3962 16.0169 42.8274 16.0172 41.2586C16.0173 40.3219 16.016 39.3852 16.011 38.4485C16.0065 37.5666 16.0065 36.6848 16.0099 35.8029C16.0104 35.4801 16.0093 35.1572 16.0064 34.8344C15.9807 31.7171 15.9807 31.7171 17.0645 30.2774C17.1534 30.1519 17.2422 30.0264 17.3338 29.897C18.3201 28.5567 19.9748 27.803 21.7632 27.3778C22.4624 27.3339 22.4624 27.3339 23.1857 27.34C23.5763 27.3419 23.5763 27.3419 23.9749 27.3438C24.2432 27.347 24.5115 27.3503 24.788 27.3536C25.1986 27.3562 25.1986 27.3562 25.6176 27.3589C26.2906 27.3634 26.9636 27.3698 27.6366 27.3778C27.6317 27.1936 27.6267 27.0095 27.6217 26.8198C27.6045 26.1292 27.5938 25.4385 27.585 24.7478C27.5803 24.4503 27.5739 24.1528 27.5657 23.8553C27.5111 21.8205 27.6984 20.3635 29.0756 18.6305C30.9848 17.1278 32.997 16.9859 35.5445 17.0039Z" fill="#0073D9"/>
<path d="M80.2572 51.0004C80.4395 51.0014 80.6218 51.0024 80.8097 51.0033C83.7467 51.053 86.3269 51.7814 88.5302 53.4589C89.8916 54.7291 90.7677 56.2233 90.7677 57.9392C89.2347 57.9392 87.7017 57.9392 86.1222 57.9392C85.8922 57.4833 85.8922 57.4833 85.6576 57.0181C84.9398 55.8087 84.1095 55.3374 82.6598 54.8398C80.9139 54.3737 79.1009 54.5785 77.4554 55.2128C75.7294 56.0273 74.818 57.0982 74.2053 58.6814C73.6965 60.6762 73.7923 62.8083 74.9729 64.6201C76.0623 65.999 77.4557 66.8473 79.3862 67.1745C81.3458 67.3103 82.9571 67.1016 84.6705 66.278C85.4637 65.551 85.8661 64.7312 86.3545 63.8341C87.8875 63.8341 89.4205 63.8341 91 63.8341C90.5395 66.1713 89.5835 67.9809 87.2691 69.4419C84.3103 70.9418 80.9632 71.2912 77.6087 70.7782C74.6751 70.0966 72.3025 68.6947 70.6767 66.5113C68.9314 63.7776 68.5483 60.3337 69.5289 57.3374C70.7091 54.6085 72.6101 52.9742 75.6407 51.7027C77.1906 51.1733 78.6016 50.99 80.2572 51.0004Z" fill="#0073D9"/>
<path d="M146.897 33.4506C148.603 34.6822 149.567 36.462 150 38.3361C150 39.2597 150 40.1833 150 41.1349C145.904 41.1349 141.808 41.1349 137.588 41.1349C138.29 43.2835 138.29 43.2835 140.155 44.396C141.622 44.7363 142.642 44.5839 143.961 43.9868C144.389 43.7472 144.389 43.7472 144.656 43.323C145.035 42.9341 145.035 42.9341 145.527 42.8434C145.712 42.8475 145.898 42.8517 146.089 42.856C146.29 42.8586 146.492 42.8612 146.699 42.8639C146.909 42.8706 147.118 42.8773 147.334 42.8842C147.653 42.8896 147.653 42.8896 147.977 42.8951C148.501 42.9045 149.025 42.9177 149.549 42.9341C149.293 44.5615 148.36 45.5894 146.914 46.5959C145.086 47.7193 142.726 48.1873 140.522 47.9321C138.115 47.4892 136.002 46.6671 134.556 44.8458C133.107 42.7131 132.683 40.2895 133.229 37.8456C133.665 36.4677 134.217 35.3781 135.332 34.3377C135.464 34.2125 135.597 34.0872 135.733 33.9582C138.733 31.3816 143.531 31.4909 146.897 33.4506Z" fill="#0073D9"/>
<path d="M110.185 33.8935C111.521 34.6134 112.397 35.6374 112.87 36.8881C112.992 37.3785 113.001 37.8306 113 38.3311C113 38.6384 113 38.6384 113 38.9519C112.999 39.1719 112.997 39.3919 112.996 39.6186C112.996 39.8447 112.996 40.0708 112.995 40.3038C112.994 41.0261 112.991 41.7484 112.988 42.4707C112.987 42.9604 112.986 43.4501 112.985 43.9398C112.982 45.1403 112.978 46.3408 112.973 47.5413C111.593 47.5413 110.213 47.5413 108.791 47.5413C108.791 47.166 108.791 46.7906 108.791 46.4039C108.566 46.5486 108.34 46.6933 108.108 46.8423C106.26 47.9017 104.285 48.1525 102.052 47.9204C100.454 47.5174 99.2411 46.7972 98.3346 45.6457C97.8625 44.4905 97.9107 43.1184 98.3491 41.9613C100.2 39.9641 102.987 39.3735 105.914 39.0257C106.813 38.912 107.445 38.79 108.094 38.2532C108.288 37.6927 108.288 37.6927 108.094 37.1159C107.363 36.5636 106.875 36.3755 105.886 36.2747C104.979 36.3672 104.43 36.4989 103.679 36.9263C103.526 37.3016 103.372 37.6769 103.214 38.0636C101.757 38.0636 100.3 38.0636 98.7993 38.0636C99.0258 36.4006 99.2532 35.5374 100.673 34.4266C103.292 32.7449 107.305 32.5278 110.185 33.8935Z" fill="#0073D9"/>
<path d="M114.681 56.8581C115.947 57.6699 116.647 58.7345 116.974 60.0135C116.993 60.3473 117.001 60.6816 117 61.0158C117 61.3156 117 61.3156 117 61.6215C116.999 61.836 116.997 62.0506 116.996 62.2717C116.996 62.4922 116.996 62.7128 116.995 62.9401C116.994 63.6447 116.991 64.3493 116.988 65.0539C116.987 65.5315 116.986 66.0092 116.985 66.4869C116.982 67.6579 116.978 68.829 116.974 70C115.529 70 114.085 70 112.597 70C112.593 69.7252 112.59 69.4505 112.587 69.1674C112.573 68.1473 112.555 67.1272 112.536 66.1071C112.529 65.6657 112.522 65.2243 112.517 64.783C112.509 64.1482 112.497 63.5136 112.484 62.8789C112.483 62.6818 112.481 62.4847 112.48 62.2816C112.463 60.956 112.463 60.956 111.675 59.8251C110.77 59.393 109.944 59.3741 108.911 59.4482C107.941 59.7282 107.354 60.0637 106.799 60.7783C106.398 61.5431 106.468 62.3723 106.467 63.1917C106.463 63.3867 106.459 63.5816 106.455 63.7825C106.444 64.4026 106.439 65.0226 106.435 65.6427C106.428 66.0642 106.421 66.4857 106.414 66.9072C106.397 67.9381 106.385 68.969 106.377 70C104.933 70 103.488 70 102 70C102 65.523 102 61.0461 102 56.4334C103.444 56.4334 104.889 56.4334 106.377 56.4334C106.453 56.8065 106.529 57.1796 106.607 57.564C106.797 57.4202 106.987 57.2764 107.183 57.1283C109.343 55.672 112.315 55.6727 114.681 56.8581Z" fill="#0073D9"/>
<path d="M69 28C74.61 28 80.22 28 86 28C86 29.1647 86 30.3294 86 31.5294C83.9251 31.5294 81.8501 31.5294 79.7123 31.5294C79.7123 36.9647 79.7123 42.4 79.7123 48C78.2522 48 76.7921 48 75.2877 48C75.2877 42.5647 75.2877 37.1294 75.2877 31.5294C73.2127 31.5294 71.1378 31.5294 69 31.5294C69 30.3647 69 29.2 69 28Z" fill="#0073D9"/>
<path d="M114 33.0197C115.62 33.0197 117.24 33.0197 118.909 33.0197C120.221 36.2069 121.532 39.3942 122.883 42.678C123.294 42.1582 123.495 41.7906 123.722 41.2085C123.791 41.0316 123.861 40.8547 123.932 40.6724C124.006 40.4821 124.079 40.2917 124.155 40.0956C124.232 39.9 124.308 39.7044 124.387 39.5029C124.632 38.8779 124.875 38.2526 125.119 37.6271C125.363 37.0003 125.607 36.3735 125.852 35.747C126.005 35.357 126.157 34.9667 126.308 34.5763C126.377 34.4006 126.445 34.225 126.516 34.044C126.577 33.8886 126.637 33.7333 126.699 33.5732C126.857 33.2168 126.857 33.2168 127.091 33.0197C127.456 33.0025 127.822 32.9986 128.188 33.0004C128.408 33.001 128.629 33.0017 128.856 33.0023C129.089 33.004 129.321 33.0056 129.56 33.0073C129.793 33.0082 130.026 33.0091 130.266 33.01C130.844 33.0124 131.422 33.0156 132 33.0197C130.868 35.8035 129.615 38.5444 128.347 41.286C128.148 41.7193 127.948 42.1527 127.748 42.586C126.915 44.3938 126.078 46.2 125.221 48C123.678 48 122.135 48 120.545 48C120.347 47.5701 120.149 47.1402 119.945 46.6972C119.876 46.5477 119.807 46.3982 119.736 46.2442C119.381 45.476 119.027 44.7077 118.673 43.9392C117.973 42.4181 117.271 40.8974 116.56 39.3796C116.256 38.7301 115.953 38.0803 115.651 37.4304C115.505 37.1187 115.359 36.8072 115.212 36.4959C115.007 36.0603 114.804 35.6242 114.601 35.1879C114.54 35.0592 114.478 34.9306 114.415 34.7981C114.116 34.1495 114 33.73 114 33.0197Z" fill="#0073D9"/>
<path d="M34.2325 20.0036C34.4844 20.0024 34.7363 20.0012 34.9958 20C35.4019 20.0011 35.4019 20.0011 35.8162 20.0023C36.2353 20.0018 36.2353 20.0018 36.663 20.0012C37.2538 20.001 37.8446 20.0017 38.4354 20.0032C39.3392 20.0052 40.2428 20.0032 41.1466 20.0008C41.7207 20.0011 42.2948 20.0016 42.869 20.0023C43.1392 20.0015 43.4094 20.0008 43.6878 20C43.9405 20.0012 44.1931 20.0024 44.4535 20.0036C44.6749 20.0039 44.8963 20.0042 45.1244 20.0045C45.8399 20.059 46.3427 20.1729 46.9802 20.4277C48.7075 22.1868 47.7178 24.8012 47.7178 27C42.2009 27 36.684 27 31 27C31 21.5544 31 21.5544 31.9834 20.4277C32.7223 20.03 33.3408 20.0048 34.2325 20.0036Z" fill="white"/>
<path d="M154 28C155.32 28 156.64 28 158 28C158 34.27 158 40.54 158 47C156.68 47 155.36 47 154 47C154 40.73 154 34.46 154 28Z" fill="#0073D9"/>
<path d="M97 33C97 34.2158 97 35.4316 97 36.6842C96.386 36.6842 95.7721 36.6842 95.1395 36.6842C94.0646 36.841 93.2583 37.069 92.4797 37.6859C91.9364 38.3916 91.5952 38.8853 91.577 39.7224C91.5724 39.8846 91.5678 40.0469 91.563 40.214C91.559 40.4742 91.559 40.4742 91.5549 40.7397C91.5504 40.9186 91.5459 41.0974 91.5412 41.2817C91.5273 41.8523 91.5165 42.4228 91.5058 42.9934C91.4969 43.3806 91.4879 43.7677 91.4786 44.1548C91.4559 45.1032 91.4373 46.0515 91.4186 47C89.9605 47 88.5023 47 87 47C87 42.5016 87 38.0032 87 33.3684C88.4581 33.3684 89.9163 33.3684 91.4186 33.3684C91.4953 33.7939 91.5721 34.2195 91.6512 34.6579C91.8142 34.5173 91.9773 34.3767 92.1453 34.2319C93.6943 33.085 94.9306 33 97 33Z" fill="#0073D9"/>
<path d="M94 56C95.65 56 97.3 56 99 56C99 60.62 99 65.24 99 70C97.35 70 95.7 70 94 70C94 65.38 94 60.76 94 56Z" fill="#0073D9"/>
<path d="M121 56C122.32 56 123.64 56 125 56C125 60.62 125 65.24 125 70C123.68 70 122.36 70 121 70C121 65.38 121 60.76 121 56Z" fill="#0073D9"/>
<path d="M143.734 36.33C144.853 36.7726 145.522 37.4204 146 38.2634C146 38.5065 146 38.7496 146 39C143.03 39 140.06 39 137 39C137.869 37.1325 137.869 37.1325 138.8 36.6982C139.063 36.5701 139.063 36.5701 139.33 36.4393C140.746 35.867 142.269 35.8789 143.734 36.33Z" fill="white"/>
<path d="M108.704 41C108.789 41 108.874 41 108.962 41C109.051 42.0783 109.051 42.879 108.189 43.807C107.097 44.5574 106.079 44.9387 104.58 45C103.79 44.9827 103.514 44.9159 102.791 44.6257C102.135 44.0771 101.981 43.7849 102.002 43.0585C102.308 42.5556 102.308 42.5556 103.033 42.1228C104.046 41.8688 105.076 41.713 106.126 41.5614C107.525 41.4276 107.525 41.4276 108.704 41Z" fill="white"/>
<path d="M97.9694 51.27C98.7519 51.7995 98.8717 52.1528 99 52.9901C98.8724 53.8845 98.5865 54.2137 97.7883 54.8045C96.8687 55.0904 96.1887 55.0456 95.2674 54.7809C94.59 54.3812 94.2978 54.1371 94 53.485C94.021 52.4901 94.2825 51.9265 95.1142 51.2229C96.1283 50.9369 96.9821 50.8988 97.9694 51.27Z" fill="#0073D9"/>
<path d="M123.396 51.0669C124.13 51.4343 124.601 51.7077 124.913 52.4056C125.09 53.1911 125.009 53.5295 124.565 54.2548C124.054 54.7705 123.889 54.9208 123.124 54.9919C122.193 55.0148 121.532 55.0116 120.678 54.6669C120.054 53.9555 119.953 53.3065 120.017 52.4245C120.286 51.8515 120.512 51.5757 121.073 51.2003C121.863 50.9981 122.589 50.9403 123.396 51.0669Z" fill="#0073D9"/>
<path d="M150.453 38C150.951 38.3704 150.951 38.3704 151 39.0952C150.997 39.386 150.991 39.6768 150.982 39.9676C150.98 40.1161 150.978 40.2646 150.976 40.4175C150.97 40.7846 150.961 41.1515 150.951 41.5185C150.194 41.6806 149.508 41.7312 148.721 41.7417C148.355 41.7473 148.355 41.7473 147.981 41.7529C147.588 41.7576 147.588 41.7576 147.187 41.7623C146.783 41.7681 146.783 41.7681 146.37 41.774C145.51 41.7861 144.649 41.797 143.789 41.8079C143.205 41.8159 142.622 41.8239 142.038 41.8321C140.608 41.8519 139.178 41.8708 137.747 41.8889C137.747 42.2556 137.747 42.6222 137.747 43C137.583 42.9389 137.419 42.8778 137.249 42.8148C137.167 42.3259 137.085 41.837 137 41.3333C141.522 41.3333 146.043 41.3333 150.702 41.3333C150.579 39.6833 150.579 39.6833 150.453 38Z" fill="white"/>
<path d="M27.7654 20C28.0639 20.809 28.0063 21.6045 27.9704 22.4441C27.9649 22.5971 27.9594 22.7501 27.9537 22.9078C27.9359 23.3947 27.9163 23.8815 27.8966 24.3684C27.8842 24.6993 27.8719 25.0301 27.8597 25.361C27.8298 26.1706 27.7975 26.98 27.7654 27.7895C25.5328 27.8589 23.3002 27.9284 21 28C21.8953 27.4614 22.4891 27.3421 23.5397 27.3479C23.7585 27.3485 23.9773 27.3492 24.2027 27.3499C24.5444 27.3526 24.5444 27.3526 24.893 27.3553C25.2388 27.3567 25.2388 27.3567 25.5915 27.3581C26.1606 27.3606 26.7297 27.3641 27.2988 27.3684C27.2961 27.0938 27.2934 26.8191 27.2906 26.5362C27.2551 21.3816 27.2551 21.3816 27.7654 20Z" fill="white"/>
<path d="M55 71C55.66 71 56.32 71 57 71C56.835 71.1414 56.67 71.2829 56.5 71.4286C56.17 71.4286 55.84 71.4286 55.5 71.4286C55.5058 71.5783 55.5116 71.728 55.5176 71.8823C55.5221 72.0773 55.5266 72.2723 55.5312 72.4732C55.5371 72.6671 55.5429 72.861 55.5488 73.0608C55.5 73.5714 55.5 73.5714 55 74C55 73.01 55 72.02 55 71Z" fill="white"/>
<path d="M33 51C33 51.8418 32.2596 52.4882 31.5 53.1176C31.335 53.1176 31.17 53.1176 31 53.1176C30.8917 53.2869 30.8917 53.2869 30.7812 53.4596C30.5 53.8235 30.5 53.8235 30 54C30.4179 53.3343 31.0184 52.7774 31.6406 52.2022C31.7436 52.1059 31.8466 52.0095 31.9526 51.9103C32.7076 51.2064 32.7076 51.2064 33 51Z" fill="white"/>
<path d="M106.5 36.0146C106.665 36.1447 106.83 36.2748 107 36.4088C106.846 36.4184 106.693 36.4281 106.534 36.438C106.332 36.4528 106.13 36.4675 105.922 36.4827C105.622 36.5033 105.622 36.5033 105.315 36.5242C104.682 36.5853 104.682 36.5853 104 37C103.453 36.9261 103.453 36.9261 103 36.8029C104.163 36.0759 105.014 35.9507 106.5 36.0146Z" fill="#1067D4"/>
<path d="M93.1818 37C93.4518 37.0508 93.7218 37.1015 94 37.1538C93.82 37.1538 93.64 37.1538 93.4545 37.1538C93.4545 37.2554 93.4545 37.3569 93.4545 37.4615C93.1424 37.552 93.1424 37.552 92.8239 37.6442C91.8246 38.0244 91.6744 38.368 91.2727 39C91.0682 38.75 91.0682 38.75 91 38.3846C91.5658 37.8053 92.1394 37.3225 93.1818 37Z" fill="white"/>
</svg>
