<svg width="49" height="49" viewBox="0 0 49 49" fill="none" xmlns="http://www.w3.org/2000/svg">
<g clip-path="url(#clip0_33_1129)">
<path fill-rule="evenodd" clip-rule="evenodd" d="M40.5782 44.1H8.42353C6.69287 44.1 5.41487 42.3923 6.06762 40.8218C9.09627 33.56 16.2115 29.4 24.4996 29.4C32.7903 29.4 39.9055 33.56 42.9341 40.8218C43.5869 42.3923 42.3089 44.1 40.5782 44.1ZM14.4958 14.7C14.4958 9.29526 18.985 4.89996 24.4996 4.89996C30.0167 4.89996 34.5034 9.29526 34.5034 14.7C34.5034 20.1047 30.0167 24.5 24.4996 24.5C18.985 24.5 14.4958 20.1047 14.4958 14.7ZM48.8914 43.2081C47.0732 34.9786 41.3861 28.905 33.9007 26.1487C37.8672 23.0201 40.1806 17.9608 39.3303 12.4213C38.3449 5.99498 32.8878 0.852543 26.3003 0.102843C17.2069 -0.933507 9.49392 6.00001 9.49392 14.7C9.49392 19.3305 11.6848 23.4562 15.1011 26.1487C7.61322 28.905 1.92855 34.9786 0.107859 43.2081C-0.552392 46.1996 1.90855 49 5.03223 49H43.967C47.0932 49 49.5542 46.1996 48.8914 43.2081Z" fill="white"/>
</g>
<defs>
<clipPath id="clip0_33_1129">
<rect width="49" height="49" fill="white"/>
</clipPath>
</defs>
</svg>
