<svg width="60" height="60" viewBox="0 0 60 60" fill="none" xmlns="http://www.w3.org/2000/svg">
<path d="M30 26.25C33.4518 26.25 36.25 23.4518 36.25 20C36.25 16.5482 33.4518 13.75 30 13.75C26.5482 13.75 23.75 16.5482 23.75 20C23.75 23.4518 26.5482 26.25 30 26.25Z" stroke="white" stroke-width="2.5" stroke-linecap="round"/>
<path d="M34.4199 16.25C34.9144 15.3936 35.6519 14.703 36.5387 14.2656C37.4257 13.8283 38.4224 13.6637 39.4029 13.7928C40.3832 13.9219 41.3034 14.3388 42.0469 14.9908C42.7904 15.6428 43.3239 16.5007 43.5799 17.4559C43.8357 18.4111 43.8027 19.4208 43.4849 20.3572C43.1669 21.2936 42.5784 22.1148 41.7939 22.7168C41.0094 23.3188 40.0639 23.6746 39.0772 23.7393C38.0904 23.804 37.1067 23.5746 36.2502 23.0801" stroke="white" stroke-width="2.5"/>
<path d="M25.5802 16.25C25.0857 15.3936 24.3484 14.703 23.4614 14.2656C22.5745 13.8283 21.5778 13.6637 20.5974 13.7928C19.6169 13.9219 18.6968 14.3388 17.9533 14.9908C17.2098 15.6428 16.6763 16.5007 16.4204 17.4559C16.1644 18.4111 16.1975 19.4208 16.5153 20.3572C16.8332 21.2936 17.4216 22.1148 18.2062 22.7168C18.9907 23.3188 19.9362 23.6746 20.923 23.7393C21.9098 23.804 22.8936 23.5746 23.75 23.0801" stroke="white" stroke-width="2.5"/>
<path d="M30 31.25C40.2005 31.25 42.8337 39.5055 43.5135 43.7675C43.731 45.131 42.6307 46.25 41.25 46.25H18.75C17.3693 46.25 16.2691 45.131 16.4865 43.7675C17.1662 39.5055 19.7994 31.25 30 31.25Z" stroke="white" stroke-width="2.5" stroke-linecap="round"/>
<path d="M32.7179 31.4648L31.7949 30.622L30.2437 32.3207L32.5129 32.6977L32.7179 31.4648ZM42.9534 41.25L41.7527 41.5975L42.0139 42.5H42.9534V41.25ZM38.7502 30C41.3194 30 43.1239 31.2567 44.4459 33.0172C45.7944 34.8132 46.5862 37.0765 47.0289 38.8442L49.4542 38.237C48.9762 36.3287 48.0824 33.6967 46.4452 31.5162C44.7817 29.3007 42.3007 27.5 38.7502 27.5V30ZM33.6409 32.3075C34.8919 30.9375 36.5269 30 38.7502 30V27.5C35.7072 27.5 33.4342 28.8265 31.7949 30.622L33.6409 32.3075ZM32.5129 32.6977C38.2642 33.6535 40.6977 37.9502 41.7527 41.5975L44.1542 40.9025C42.9764 36.8315 40.0477 31.4158 32.9229 30.2318L32.5129 32.6977ZM45.9877 40H42.9534V42.5H45.9877V40ZM47.0289 38.8442C47.1634 39.3815 46.7689 40 45.9877 40V42.5C48.1644 42.5 50.0382 40.5692 49.4542 38.237L47.0289 38.8442Z" fill="white"/>
<path d="M27.2823 31.4648L27.4873 32.6977L29.7565 32.3207L28.2053 30.622L27.2823 31.4648ZM17.0467 41.25V42.5H17.9863L18.2475 41.5975L17.0467 41.25ZM21.25 30C23.4733 30 25.1083 30.9375 26.359 32.3075L28.2053 30.622C26.566 28.8265 24.2931 27.5 21.25 27.5V30ZM12.9711 38.8442C13.4139 37.0765 14.2057 34.8132 15.5542 33.0172C16.8762 31.2567 18.6807 30 21.25 30V27.5C17.6995 27.5 15.2186 29.3007 13.555 31.5162C11.9178 33.6967 11.0239 36.3287 10.546 38.237L12.9711 38.8442ZM14.0125 40C13.2312 40 12.8366 39.3815 12.9711 38.8442L10.546 38.237C9.96193 40.5692 11.8356 42.5 14.0125 42.5V40ZM17.0467 40H14.0125V42.5H17.0467V40ZM18.2475 41.5975C19.3026 37.9502 21.7359 33.6535 27.4873 32.6977L27.0773 30.2318C19.9525 31.4158 17.0238 36.8315 15.846 40.9025L18.2475 41.5975Z" fill="white"/>
</svg>
