<svg width="60" height="60" viewBox="0 0 60 60" fill="none" xmlns="http://www.w3.org/2000/svg">
<path d="M9.21596 13.9374C11.8972 13.9374 14.0694 11.7635 14.0694 9.08424C14.0694 6.40217 11.8972 4.22998 9.21596 4.22998C6.53389 4.22998 4.36182 6.40217 4.36182 9.08424C4.3617 11.7635 6.53389 13.9374 9.21596 13.9374Z" fill="white"/>
<path d="M29.9657 26.8043V26.8116C29.9775 26.8116 29.9884 26.8079 30.0001 26.8079C30.012 26.8079 30.0229 26.8116 30.0346 26.8116V26.8043C31.8582 26.7671 33.3254 25.2837 33.3254 23.4526C33.3254 21.6189 31.8582 20.1363 30.0346 20.0992V20.0918C30.0227 20.0918 30.0118 20.0954 30.0001 20.0954C29.9884 20.0954 29.9775 20.0918 29.9657 20.0918V20.0992C28.1419 20.1363 26.6748 21.6189 26.6748 23.4526C26.6747 25.2837 28.1419 26.7671 29.9657 26.8043Z" fill="white"/>
<path d="M50.7841 13.9374C53.4662 13.9374 55.6384 11.7635 55.6384 9.08424C55.6384 6.40217 53.4662 4.22998 50.7841 4.22998C48.1029 4.22998 45.9307 6.40217 45.9307 9.08424C45.9308 11.7635 48.103 13.9374 50.7841 13.9374Z" fill="white"/>
<path d="M55.0895 16.2366H50.8342H48.6775C46.2041 16.2366 43.9393 17.623 42.8142 19.8251L38.8891 31.3056C38.7539 31.5688 38.5027 31.7556 38.2104 31.8074C37.9182 31.8592 37.6188 31.7712 37.4002 31.5688L34.9584 29.4547C34.228 28.7787 33.27 28.4032 32.2746 28.4032H30H27.7254C26.73 28.4032 25.772 28.7787 25.0416 29.4547L22.6 31.5688C22.3813 31.7712 22.0819 31.8592 21.7897 31.8074C21.4977 31.7556 21.2463 31.5688 21.1111 31.3056L17.1859 19.8251C16.0609 17.623 13.7961 16.2366 11.3228 16.2366H9.16582H4.91039C2.55867 16.2366 0 18.7952 0 21.148V37.4618C0 38.6377 0.952734 39.5912 2.12859 39.5912C2.70738 39.5912 2.12859 39.5912 3.61477 39.5912L4.42406 53.5043C4.42406 54.7554 5.43937 55.7698 6.69047 55.7698C7.21852 55.7698 8.19211 55.7698 9.1657 55.7698C10.1393 55.7698 11.1129 55.7698 11.6409 55.7698C12.892 55.7698 13.9073 54.7554 13.9073 53.5043L14.7166 39.5912L14.7067 29.6577C14.7067 29.5008 14.8138 29.3656 14.9671 29.3275C15.1205 29.2911 15.2774 29.3637 15.3491 29.5035L18.463 37.1677C18.8387 37.9008 19.5355 38.4162 20.3467 38.5604C21.1579 38.7047 21.9899 38.4615 22.595 37.9027L25.5746 35.7079C25.6745 35.6162 25.8188 35.5925 25.9421 35.6443C26.0665 35.6998 26.1464 35.8222 26.1464 35.9564L26.1573 44.5706L26.7171 54.2019C26.7171 55.0676 27.4204 55.7698 28.2868 55.7698C28.6516 55.7698 29.3257 55.7698 29.9999 55.7698C30.6741 55.7698 31.3482 55.7698 31.7129 55.7698C32.5794 55.7698 33.2825 55.0676 33.2825 54.2019L33.8425 44.5706L33.8534 35.9564C33.8534 35.8221 33.9332 35.6998 34.0575 35.6443C34.1809 35.5925 34.3252 35.6162 34.425 35.7079L37.4047 37.9027C38.0099 38.4615 38.8419 38.7047 39.6531 38.5604C40.4643 38.4162 41.1611 37.9008 41.5366 37.1677L44.6507 29.5035C44.7223 29.3638 44.8793 29.2911 45.0326 29.3275C45.186 29.3656 45.293 29.5007 45.293 29.6577L45.283 39.5912L46.0923 53.5043C46.0923 54.7554 47.1076 55.7698 48.3588 55.7698C48.887 55.7698 49.8605 55.7698 50.8341 55.7698C51.8077 55.7698 52.7812 55.7698 53.3092 55.7698C54.5604 55.7698 55.5758 54.7554 55.5758 53.5043L56.3851 39.5912C57.8713 39.5912 57.2924 39.5912 57.8713 39.5912C59.0471 39.5912 59.9999 38.6377 59.9999 37.4618V21.148C60 18.7952 57.4413 16.2366 55.0895 16.2366Z" fill="white"/>
</svg>
