<svg width="60" height="60" viewBox="0 0 60 60" fill="none" xmlns="http://www.w3.org/2000/svg">
<g clip-path="url(#clip0_47_1349)">
<path d="M58.4998 47.9999H1.49978C0.671028 47.9999 -0.000221786 48.6712 -0.000221786 49.4999V52.4999C-0.000221786 53.3287 0.671028 53.9999 1.49978 53.9999H58.4998C59.3285 53.9999 59.9998 53.3287 59.9998 52.4999V49.4999C59.9998 48.6712 59.3285 47.9999 58.4998 47.9999ZM7.55134 37.994C8.14009 38.6353 8.96697 38.999 9.83228 38.9981L22.0704 38.9812C23.0362 38.9799 23.9881 38.7512 24.8492 38.3137L52.1267 24.4715C54.6335 23.1993 56.8807 21.3834 58.4098 19.0049C60.1263 16.3349 60.3129 14.4028 59.6351 13.0378C58.9592 11.6718 57.3157 10.6687 54.1742 10.4643C51.3757 10.2824 48.5923 11.0193 46.0854 12.2906L36.8501 16.9771L16.347 9.28401C16.1004 9.11794 15.814 9.02073 15.5174 9.00243C15.2207 8.98414 14.9245 9.04542 14.6595 9.17994L8.4954 12.3084C7.49509 12.8156 7.25322 14.1506 8.01072 14.9831L22.6563 24.1799L12.9804 29.0906L6.19759 25.6715C5.96391 25.5537 5.70579 25.4925 5.44409 25.4928C5.18238 25.4931 4.92442 25.555 4.69103 25.6734L0.928841 27.5831C-0.0499092 28.0799 -0.307722 29.3756 0.406653 30.2156L7.55134 37.994Z" fill="#0073D9"/>
</g>
<defs>
<clipPath id="clip0_47_1349">
<rect width="60" height="60" fill="white"/>
</clipPath>
</defs>
</svg>
