<svg width="27" height="27" viewBox="0 0 27 27" fill="none" xmlns="http://www.w3.org/2000/svg">
<g clip-path="url(#clip0_1_62)">
<path d="M15.3062 13.3024L1.94707 26.1663C1.32148 25.7388 0.950061 25.0276 0.956629 24.27V2.33483C0.950061 1.57715 1.32148 0.866009 1.94707 0.438477L15.3062 13.3024Z" fill="#2196F3"/>
<path d="M19.9806 8.81025L15.3061 13.3036L1.94702 0.439648C1.99736 0.400637 2.04979 0.364344 2.10403 0.330939C2.81007 -0.0969903 3.69197 -0.110805 4.4111 0.294702L19.9806 8.81025Z" fill="#4CAF50"/>
<path d="M25.6458 13.3048C25.6545 14.1602 25.1898 14.9503 24.438 15.3582L19.9809 17.7981L15.3064 13.3048L19.9809 8.81152L24.438 11.2514C25.1898 11.6594 25.6545 12.4495 25.6458 13.3048Z" fill="#F0BB1F"/>
<path d="M19.9806 17.797L4.4111 26.3126C3.69039 26.7118 2.81183 26.698 2.10403 26.2763C2.04979 26.2429 1.99736 26.2066 1.94702 26.1676L15.3062 13.3037L19.9806 17.797Z" fill="#F15A2B"/>
</g>
<defs>
<clipPath id="clip0_1_62">
<rect width="26.6024" height="26.6024" fill="white"/>
</clipPath>
</defs>
</svg>
