<svg width="115" height="115" viewBox="0 0 115 115" fill="none" xmlns="http://www.w3.org/2000/svg">
<g clip-path="url(#clip0_1_3636)">
<path d="M57.5 100.625C81.3173 100.625 100.625 81.3173 100.625 57.5C100.625 33.6827 81.3173 14.375 57.5 14.375C33.6827 14.375 14.375 33.6827 14.375 57.5C14.375 81.3173 33.6827 100.625 57.5 100.625Z" fill="white"/>
<path d="M57.5 0C25.7456 0 0 25.7456 0 57.5C0 89.2544 25.7456 115 57.5 115C89.2544 115 115 89.2544 115 57.5C115 25.7456 89.2544 0 57.5 0ZM57.5 100.625C33.6842 100.625 14.375 81.3158 14.375 57.5C14.375 33.6842 33.6842 14.375 57.5 14.375C81.3158 14.375 100.625 33.6842 100.625 57.5C100.625 81.3158 81.3158 100.625 57.5 100.625Z" fill="#0073D9"/>
<path d="M32.3438 82.6562L71.875 71.875L82.6562 32.3438L43.125 43.125L32.3438 82.6562ZM57.5 50.3125C61.4729 50.3125 64.6875 53.5271 64.6875 57.5C64.6875 61.4729 61.4729 64.6875 57.5 64.6875C53.5271 64.6875 50.3125 61.4729 50.3125 57.5C50.3125 53.5271 53.5271 50.3125 57.5 50.3125Z" fill="#0073D9"/>
<path d="M57.5 64.6875C61.4695 64.6875 64.6875 61.4695 64.6875 57.5C64.6875 53.5305 61.4695 50.3125 57.5 50.3125C53.5305 50.3125 50.3125 53.5305 50.3125 57.5C50.3125 61.4695 53.5305 64.6875 57.5 64.6875Z" fill="white"/>
</g>
<defs>
<clipPath id="clip0_1_3636">
<rect width="115" height="115" fill="white"/>
</clipPath>
</defs>
</svg>
